<svg width="36" height="36" viewBox="0 0 36 36" fill="none" xmlns="http://www.w3.org/2000/svg">
<path fill-rule="evenodd" clip-rule="evenodd" d="M10.579 0.108C12.499 0.0199963 13.111 0 18 0C22.8899 0 23.501 0.0209945 25.4199 0.108C27.3369 0.195005 28.646 0.500007 29.791 0.945C30.9919 1.39714 32.0798 2.10557 32.9789 3.02101C33.8945 3.92007 34.603 5.00803 35.055 6.209C35.4999 7.354 35.804 8.66301 35.892 10.579C35.98 12.499 36 13.111 36 18C36 22.889 35.9791 23.501 35.892 25.4211C35.8049 27.3369 35.4999 28.646 35.055 29.791C34.595 30.9741 33.9789 31.979 32.9789 32.9789C32.0799 33.8945 30.9919 34.603 29.791 35.055C28.646 35.4999 27.3369 35.804 25.4211 35.892C23.501 35.98 22.889 36 18 36C13.111 36 12.499 35.9791 10.579 35.892C8.66301 35.8049 7.354 35.4999 6.209 35.055C5.02599 34.595 4.021 33.9789 3.02101 32.9789C2.10541 32.0799 1.39693 30.9919 0.945 29.791C0.500007 28.646 0.196004 27.3369 0.108 25.4211C0.0199963 23.501 0 22.8899 0 18C0 13.11 0.0209945 12.499 0.108 10.58C0.195005 8.66301 0.500007 7.354 0.945 6.209C1.39714 5.00811 2.10557 3.9202 3.02101 3.02101C3.92006 2.10541 5.00801 1.39693 6.209 0.945C7.354 0.500007 8.66301 0.196004 10.579 0.108ZM25.274 3.348C23.3759 3.26199 22.806 3.24299 18 3.24299C13.194 3.24299 12.624 3.26199 10.726 3.348C8.971 3.428 8.018 3.72099 7.38399 3.968C6.544 4.294 5.94399 4.68399 5.31399 5.31399C4.68501 5.94399 4.294 6.544 3.968 7.38399C3.72099 8.018 3.428 8.971 3.348 10.726C3.26199 12.624 3.24299 13.194 3.24299 18C3.24299 22.806 3.26199 23.3759 3.348 25.274C3.428 27.029 3.72099 27.982 3.968 28.6161C4.25636 29.3979 4.71631 30.1052 5.31399 30.6861C5.89474 31.2837 6.60209 31.7437 7.38399 32.032C8.018 32.2791 8.971 32.572 10.726 32.652C12.624 32.7381 13.193 32.7571 18 32.7571C22.807 32.7571 23.3759 32.7381 25.274 32.652C27.029 32.572 27.982 32.2791 28.6161 32.032C29.456 31.706 30.0561 31.3161 30.6861 30.6861C31.2837 30.1053 31.7437 29.3979 32.032 28.6161C32.2791 27.982 32.572 27.029 32.652 25.274C32.7381 23.3759 32.7571 22.806 32.7571 18C32.7571 13.194 32.7381 12.624 32.652 10.726C32.572 8.971 32.2791 8.018 32.032 7.38399C31.706 6.544 31.3161 5.94399 30.6861 5.31399C30.0561 4.68501 29.456 4.294 28.6161 3.968C27.982 3.72099 27.029 3.428 25.274 3.348ZM15.7017 23.5487C16.4304 23.8507 17.2113 24.0059 18 24.0059C19.593 24.0059 21.1205 23.3732 22.2469 22.2469C23.3733 21.1205 24.0061 19.5928 24.0061 18C24.0061 16.4072 23.3733 14.8795 22.2469 13.7531C21.1205 12.6268 19.593 11.994 18 11.994C17.2113 11.994 16.4304 12.1493 15.7017 12.4512C14.9729 12.753 14.3109 13.1954 13.7532 13.7531C13.1955 14.3108 12.753 14.9729 12.4512 15.7016C12.1494 16.4302 11.9941 17.2113 11.9941 18C11.9941 18.7887 12.1494 19.5698 12.4512 20.2984C12.753 21.0271 13.1955 21.6892 13.7532 22.2469C14.3109 22.8045 14.9729 23.247 15.7017 23.5487ZM11.4579 11.4578C13.193 9.72275 15.5463 8.74798 18 8.74798C20.4539 8.74798 22.8071 9.72275 24.5422 11.4578C26.2772 13.1929 27.252 15.5463 27.252 18C27.252 20.4537 26.2772 22.807 24.5422 24.5422C22.8071 26.2772 20.4539 27.252 18 27.252C15.5463 27.252 13.193 26.2772 11.4579 24.5422C9.72282 22.807 8.74805 20.4537 8.74805 18C8.74805 15.5463 9.72282 13.1929 11.4579 11.4578ZM29.3035 10.1264C29.7136 9.71628 29.944 9.16002 29.944 8.57999C29.944 7.99995 29.7136 7.44369 29.3035 7.03355C28.8933 6.62341 28.3371 6.39299 27.757 6.39299C27.1771 6.39299 26.6207 6.62341 26.2106 7.03355C25.8004 7.44369 25.57 7.99995 25.57 8.57999C25.57 9.16002 25.8004 9.71628 26.2106 10.1264C26.6207 10.5366 27.1771 10.767 27.757 10.767C28.3371 10.767 28.8933 10.5366 29.3035 10.1264Z" fill="#F3F3CC"/>
</svg>
