<svg width="36" height="30" viewBox="0 0 36 30" fill="none" xmlns="http://www.w3.org/2000/svg">
<path d="M35.9314 3.48637C34.6073 4.06687 33.1898 4.46625 31.6958 4.64738C33.2201 3.73275 34.3856 2.286 34.9414 0.5625C33.5115 1.395 31.9298 1.998 30.2479 2.33888C28.9069 0.903375 26.9899 0 24.8625 0C20.7844 0 17.4791 3.30412 17.4791 7.37662C17.4791 7.96275 17.55 8.52525 17.6726 9.0585C11.538 8.77163 6.09975 5.82412 2.46263 1.37137C1.82363 2.45587 1.46025 3.71587 1.46025 5.08725C1.46025 7.65337 2.76637 9.90337 4.74075 11.2264C3.53362 11.1915 2.39737 10.8574 1.40175 10.3073V10.3961C1.40175 13.9747 3.94425 16.9583 7.31925 17.6378C6.70388 17.8009 6.04688 17.8954 5.37975 17.8954C4.90613 17.8954 4.45388 17.8492 4.00275 17.766C4.95225 20.6955 7.67025 22.8285 10.9102 22.8926C8.39137 24.867 5.19863 26.0437 1.75837 26.0437C1.17225 26.0437 0.58725 26.0156 0 25.9447C3.28163 28.0373 7.155 29.2612 11.3389 29.2612C24.9142 29.2612 32.3325 18.0169 32.3325 8.27887C32.3325 7.96837 32.3325 7.65225 32.3089 7.335C33.7567 6.30337 35.01 4.99613 36 3.5145L35.9314 3.48637Z" fill="#F3F3CC"/>
</svg>
