<svg width="36" height="26" viewBox="0 0 36 26" fill="none" xmlns="http://www.w3.org/2000/svg">
<path d="M35.2485 3.88023C34.8208 2.36214 33.637 1.17152 32.1121 0.750641C29.3044 3.58856e-05 18.0172 3.6067e-05 18.0172 3.6067e-05C18.0172 3.6067e-05 6.75136 -0.0179697 3.91437 0.750641C2.3974 1.17265 1.20791 2.36214 0.784781 3.88023C0.252493 6.75773 -0.0119636 9.67013 0.000415243 12.596C-0.00521148 15.5028 0.258119 18.4107 0.784781 21.2702C1.20791 22.7883 2.3974 23.9789 3.91437 24.4065C6.7221 25.1571 18.0172 25.1571 18.0172 25.1571C18.0172 25.1571 29.2763 25.1571 32.1121 24.4065C33.637 23.9789 34.8208 22.7894 35.2485 21.2702C35.765 18.4107 36.0171 15.5028 35.9991 12.596C36.0171 9.67013 35.7706 6.75773 35.2485 3.88023ZM14.4116 17.9831V7.18536L23.8071 12.596L14.4116 17.9831Z" fill="#F3F3CC"/>
</svg>
