<svg width="690" height="420" viewBox="0 0 690 420" fill="none" xmlns="http://www.w3.org/2000/svg">
<rect width="690" height="420" rx="10" fill="#EA9B62"/>
<path d="M347.995 155.67L349.523 136.096L332.325 140.845L330.545 153.619" fill="#FBDFAE"/>
<path d="M348.809 155.67L349.327 149.039L350.148 138.524L350.338 136.096C350.335 135.843 350.216 135.605 350.014 135.452C349.813 135.298 349.552 135.247 349.307 135.311L343.522 136.909L334.239 139.472L332.109 140.06C331.831 140.133 331.613 140.351 331.541 140.629L329.979 151.837L329.761 153.403C329.657 153.834 329.906 154.272 330.329 154.404C330.763 154.52 331.209 154.267 331.331 153.836L332.892 142.628L333.11 141.062L332.542 141.63L338.327 140.033L347.61 137.469L349.74 136.881L348.71 136.096L348.192 142.728L347.371 153.242L347.182 155.67C347.1 156.715 348.728 156.709 348.809 155.67L348.809 155.67Z" fill="black"/>
<path d="M349.301 138.854C351.439 132.036 357.08 128.688 358.135 123.34C358.747 120.235 355.285 113.021 355.285 113.021L323.365 111.029C323.365 111.029 306.947 145.295 338.146 143.124" fill="#FBDFAE"/>
<path d="M350.086 139.07C350.892 136.738 352.074 134.552 353.584 132.601C354.882 130.833 356.328 129.156 357.44 127.259C358.38 125.656 359.154 123.798 358.994 121.906C358.765 119.966 358.271 118.067 357.526 116.261C357.062 115.027 356.558 113.8 355.988 112.611C355.842 112.361 355.574 112.208 355.285 112.208L344.473 111.533L327.271 110.459L323.365 110.215C323.075 110.211 322.805 110.365 322.662 110.618C322.099 111.795 321.619 113.019 321.166 114.242C320.166 116.898 319.393 119.634 318.855 122.421C318.238 125.713 317.976 129.118 318.572 132.433C319.161 135.708 320.757 138.716 323.422 140.758C326.937 143.45 331.62 144.096 335.926 144.034C336.666 144.023 337.407 143.989 338.146 143.939C339.185 143.868 339.193 142.24 338.146 142.311C335.582 142.533 333 142.424 330.464 141.988C328.613 141.675 326.838 141.015 325.233 140.041C324.564 139.639 323.948 139.155 323.4 138.6C323.124 138.33 322.863 138.044 322.617 137.746C322.558 137.675 322.5 137.603 322.443 137.53C322.545 137.66 322.39 137.46 322.361 137.42C322.239 137.253 322.121 137.084 322.008 136.911C321.802 136.597 321.612 136.273 321.437 135.939C321.352 135.778 321.271 135.615 321.193 135.45C321.155 135.368 321.117 135.285 321.08 135.202C321.061 135.16 321.043 135.119 321.025 135.077C320.986 134.987 321.073 135.195 321.014 135.051C320.73 134.348 320.5 133.625 320.326 132.888C320.235 132.503 320.158 132.115 320.094 131.724C320.079 131.632 320.066 131.539 320.051 131.446C320.044 131.4 320.038 131.354 320.031 131.307C320.035 131.338 320.052 131.472 320.032 131.314C320.007 131.115 319.984 130.916 319.964 130.716C319.888 129.921 319.854 129.122 319.862 128.323C319.869 127.529 319.912 126.734 319.985 125.943C320.023 125.535 320.069 125.128 320.121 124.722C320.139 124.589 320.109 124.805 320.141 124.582C320.154 124.487 320.168 124.392 320.182 124.297C320.212 124.096 320.243 123.896 320.276 123.695C320.761 120.872 321.495 118.096 322.471 115.403C322.801 114.473 323.156 113.553 323.535 112.642C323.638 112.393 323.486 112.755 323.568 112.564C323.601 112.486 323.634 112.409 323.667 112.332C323.722 112.205 323.777 112.079 323.833 111.953C323.911 111.805 323.98 111.653 324.04 111.498C324.048 111.478 324.057 111.459 324.068 111.44L323.365 111.843L334.178 112.518L351.38 113.592L355.285 113.836L354.582 113.433C355.039 114.386 355.382 115.212 355.758 116.176C356.482 117.887 357.007 119.675 357.322 121.505C357.561 123.207 356.998 124.766 356.097 126.33C355.048 128.151 353.679 129.764 352.427 131.444C350.731 133.607 349.409 136.038 348.516 138.638C348.197 139.638 349.768 140.067 350.086 139.071L350.086 139.07Z" fill="black"/>
<path d="M346.143 127.712C346.151 127.69 346.161 127.668 346.17 127.646C346.182 127.616 346.123 127.754 346.167 127.654C346.183 127.616 346.2 127.578 346.216 127.54C346.313 127.32 346.414 127.102 346.521 126.885C346.827 126.248 347.181 125.635 347.579 125.051C347.775 124.762 347.995 124.491 348.238 124.241C348.443 124.011 348.69 123.821 348.966 123.681C348.98 123.674 349.068 123.634 349.028 123.651C348.988 123.668 349.076 123.634 349.09 123.629C349.159 123.608 349.228 123.59 349.298 123.575C349.376 123.559 349.24 123.575 349.319 123.574C349.351 123.573 349.383 123.571 349.416 123.571C349.448 123.571 349.48 123.574 349.512 123.576C349.429 123.57 349.514 123.576 349.55 123.584C349.737 123.627 349.912 123.709 350.065 123.824C350.081 123.836 350.195 123.954 350.181 123.935C350.205 123.968 350.227 124.003 350.246 124.039C350.277 124.093 350.25 124.026 350.275 124.104C350.31 124.228 350.317 124.358 350.295 124.485C350.277 124.569 350.254 124.653 350.227 124.735C350.213 124.775 350.198 124.815 350.182 124.853C350.211 124.783 350.17 124.876 350.159 124.899C350.099 125.021 350.032 125.139 349.957 125.252C349.933 125.288 349.907 125.322 349.883 125.358C349.831 125.435 349.915 125.318 349.909 125.325C349.757 125.487 349.757 125.739 349.909 125.901C350.069 126.058 350.325 126.058 350.485 125.901C350.874 125.454 351.1 124.887 351.123 124.294C351.08 123.843 350.858 123.428 350.507 123.141C350.156 122.854 349.705 122.719 349.255 122.766C348.465 122.852 347.831 123.432 347.346 124.02C346.823 124.671 346.37 125.376 345.996 126.122C345.764 126.57 345.547 127.028 345.358 127.495C345.3 127.712 345.426 127.935 345.642 127.996C345.858 128.05 346.079 127.925 346.143 127.712L346.143 127.712Z" fill="black"/>
<path d="M365.093 154.881L365.407 148.118C365.551 145.027 368.077 142.496 371.392 142.121L415.485 137.382L412.383 147.816L417.177 162.197L372.277 157.756" fill="white"/>
<path d="M365.907 154.881L366.188 148.841C366.175 147.766 366.435 146.706 366.944 145.759C367.878 144.254 369.424 143.235 371.175 142.968C371.808 142.861 372.456 142.821 373.094 142.753L377.8 142.247L392.337 140.684L407.435 139.062L412.756 138.49C413.617 138.397 414.514 138.367 415.367 138.209C415.405 138.202 415.446 138.201 415.486 138.196L414.701 137.166L413.293 141.9C412.741 143.758 412.122 145.609 411.633 147.485C411.562 147.849 411.612 148.226 411.775 148.559L412.535 150.839L414.838 157.751L416.393 162.413L417.177 161.383L412.724 160.942L401.976 159.879L389.021 158.598L377.817 157.49L374.12 157.124C373.536 157.066 372.94 156.968 372.353 156.949C372.328 156.948 372.302 156.944 372.278 156.942C371.829 156.945 371.467 157.307 371.464 157.756C371.473 158.201 371.832 158.56 372.278 158.57L376.731 159.01L387.479 160.073L400.434 161.354L411.638 162.463L415.335 162.828C415.919 162.886 416.515 162.985 417.102 163.003C417.127 163.004 417.153 163.008 417.177 163.01C417.431 163.009 417.669 162.89 417.823 162.688C417.976 162.486 418.028 162.225 417.962 161.98L413.769 149.4L413.169 147.599V148.032L415.879 138.916L416.27 137.599C416.336 137.354 416.284 137.093 416.131 136.892C415.977 136.69 415.739 136.571 415.486 136.569L408.746 137.293L393.84 138.895L378.738 140.518C376.296 140.78 373.851 141.025 371.412 141.305C367.86 141.714 364.825 144.368 364.598 148.05C364.472 150.095 364.407 152.144 364.312 154.19L364.279 154.881C364.231 155.928 365.859 155.926 365.907 154.881H365.907Z" fill="black"/>
<path d="M153.479 241.897L444.731 209.614L416.874 252.72L153.479 241.897Z" fill="black"/>
<path d="M153.479 242.711L161.274 241.847L182.484 239.496L213.855 236.019L252.126 231.777L293.898 227.146L336.205 222.457L375.651 218.085L408.881 214.401L432.934 211.735L440.358 210.912C441.628 210.771 442.991 210.751 444.242 210.482C444.399 210.448 444.57 210.445 444.73 210.427L444.028 209.203L434.599 223.793L419.645 246.934L416.171 252.309L416.874 251.905L409.789 251.615L390.698 250.83L362.263 249.662L327.692 248.241L289.831 246.686L251.615 245.116L215.981 243.651L185.864 242.414L164.2 241.524C160.775 241.383 157.339 241.151 153.911 241.101C153.767 241.099 153.623 241.089 153.479 241.083C152.432 241.04 152.434 242.668 153.479 242.711L163.466 243.121L190.044 244.214L228.141 245.779L272.538 247.603L318.314 249.484L360.566 251.22L394.076 252.597L413.769 253.406C414.725 253.445 415.896 253.683 416.847 253.532C417.643 253.406 418.039 252.415 418.444 251.788L422.078 246.165L443.801 212.55L445.433 210.024C445.745 209.541 445.344 208.732 444.73 208.8L436.936 209.664L415.725 212.015L384.355 215.492L346.083 219.734L304.312 224.364L262.005 229.054L222.558 233.426L189.328 237.11L165.276 239.776C161.506 240.194 157.736 240.601 153.968 241.029C153.805 241.048 153.642 241.065 153.479 241.083C152.449 241.197 152.438 242.827 153.479 242.711Z" fill="black"/>
<path d="M444.731 209.614L406.873 173.726L153.479 241.897L444.731 209.614Z" fill="#FFC41F"/>
<path d="M445.306 209.038L421.263 186.246L408.841 174.471C408.257 173.918 407.519 172.875 406.646 172.944C406.375 172.992 406.109 173.064 405.851 173.158L391.234 177.09L361.887 184.986L323.038 195.437L279.117 207.254L235.421 219.009L196.718 229.422L167.835 237.192L153.869 240.95L153.264 241.112C152.407 241.343 152.544 242.815 153.48 242.711L161.274 241.847L182.485 239.496L213.856 236.019L252.127 231.777L293.899 227.147L336.206 222.457L375.652 218.085L408.882 214.401L432.935 211.735C436.704 211.317 440.475 210.91 444.242 210.482C444.405 210.463 444.568 210.446 444.731 210.428C445.761 210.313 445.773 208.684 444.731 208.8L436.937 209.664L415.726 212.015L384.355 215.492L346.084 219.734L304.312 224.364L262.006 229.054L222.559 233.426L189.329 237.11L165.276 239.776L157.853 240.599C156.581 240.74 155.222 240.764 153.969 241.029C153.811 241.063 153.641 241.066 153.48 241.084L153.696 242.682L160.471 240.86L178.908 235.9L206.178 228.563L239.45 219.612L275.895 209.806L312.684 199.909L346.985 190.681L375.97 182.883L396.808 177.277L403.288 175.534C404.431 175.293 405.56 174.989 406.67 174.624C406.808 174.578 406.948 174.541 407.089 174.511L406.297 174.302L419.099 186.437L439.491 205.767L444.155 210.189C444.915 210.91 446.069 209.761 445.306 209.038Z" fill="black"/>
<path d="M326.231 186.942L278.084 214.798C265.958 219.794 253.924 212.426 248.615 201.443L224.007 150.532L244.617 140.283L269.729 192.824L307.884 163.039C311.345 160.338 315.682 159.011 320.062 159.314L330.108 160.008" fill="#A8542A"/>
<path d="M325.82 186.239L319.61 189.832L305.36 198.077L289.643 207.17L279.032 213.31C278.127 213.869 277.158 214.316 276.145 214.642C271.864 215.992 267.252 215.847 263.064 214.23C256.686 211.8 251.969 206.514 249.053 200.482L244.537 191.138L236.876 175.29L229.27 159.554L224.916 150.546L224.71 150.121L224.418 151.235L231.365 147.78L242.489 142.249L245.029 140.986L243.915 140.694L246.416 145.927L252.422 158.493L259.684 173.688L265.94 186.776L268.007 191.101C268.331 191.778 268.622 192.485 268.983 193.143C268.999 193.173 269.012 193.204 269.027 193.235C269.277 193.758 269.93 193.692 270.305 193.399L276.567 188.511L290.093 177.953L303.247 167.684L307.315 164.509C308.417 163.596 309.598 162.783 310.845 162.082C313.134 160.859 315.673 160.179 318.267 160.094C319.345 160.084 320.423 160.128 321.496 160.226L329.496 160.779L330.109 160.822C331.154 160.894 331.15 159.266 330.109 159.194L323.278 158.722C322.253 158.651 321.228 158.58 320.203 158.509C318.12 158.361 316.028 158.559 314.009 159.094C311.382 159.846 308.935 161.123 306.816 162.849L303.5 165.437L290.897 175.275L276.875 186.221L271.79 190.191C270.955 190.842 270.064 191.457 269.27 192.158C269.234 192.19 269.193 192.218 269.154 192.248L270.433 192.413L267.931 187.179L261.925 174.614L254.663 159.419L248.408 146.331L246.34 142.006C246.017 141.329 245.725 140.622 245.364 139.964C245.348 139.934 245.335 139.903 245.32 139.873C245.089 139.491 244.596 139.362 244.207 139.581L237.26 143.035L226.136 148.567L223.597 149.829C223.216 150.062 223.087 150.554 223.305 150.943L226.434 157.416L233.633 172.309L241.602 188.796L247.103 200.178C247.419 200.831 247.729 201.487 248.052 202.137C250.118 206.314 253.155 209.935 256.91 212.696C260.543 215.395 264.893 216.96 269.413 217.192C271.785 217.279 274.155 216.964 276.421 216.26C277.216 216.051 277.985 215.754 278.714 215.375L286.879 210.651L302.018 201.891L317.385 193.001L326.227 187.885L326.642 187.644C327.548 187.12 326.73 185.713 325.82 186.239L325.82 186.239Z" fill="black"/>
<path d="M320.062 159.314C315.682 159.011 311.345 160.338 307.884 163.039L269.729 192.824L252.313 156.385C249.543 158.467 245.45 160.849 240.71 163.025C237.513 164.492 224.92 166.406 222.217 167.249L234.549 208.189C239.121 222.344 253.395 231.025 275.857 220.811L325.937 193.857L330.108 160.008L320.062 159.314Z" fill="#A8542A"/>
<path d="M320.062 158.5C315.602 158.215 311.187 159.536 307.618 162.225C307.115 162.607 306.621 163 306.124 163.389L297.966 169.757L285.982 179.112L274.846 187.804L271.058 190.762C270.457 191.231 269.794 191.668 269.234 192.186C269.209 192.209 269.18 192.228 269.154 192.248L270.432 192.413L268.706 188.802L264.537 180.08L259.514 169.571L255.169 160.48C254.468 159.012 253.848 157.453 253.045 156.036C253.034 156.017 253.026 155.995 253.016 155.974C252.788 155.587 252.29 155.456 251.902 155.682C249.668 157.32 247.312 158.785 244.856 160.066C243.362 160.865 241.843 161.622 240.3 162.322C240.268 162.337 240.079 162.417 240.264 162.34C240.201 162.366 240.138 162.392 240.074 162.415C239.958 162.459 239.842 162.502 239.725 162.543C239.369 162.667 239.007 162.777 238.644 162.881C234.758 163.995 230.734 164.648 226.77 165.421C225.163 165.685 223.571 166.033 222.001 166.464C221.571 166.589 221.32 167.033 221.432 167.465L222.531 171.115L225.214 180.022L228.558 191.123L231.641 201.358L233.541 207.664C234.299 210.267 235.417 212.751 236.86 215.046C239.152 218.673 242.39 221.607 246.225 223.531C250.572 225.666 255.473 226.357 260.274 225.977C263.232 225.728 266.156 225.161 268.994 224.289C271.508 223.568 273.955 222.633 276.308 221.492C277.385 220.949 278.437 220.347 279.499 219.775L286.665 215.918L296.211 210.78L306.544 205.219L316.068 200.093L323.191 196.259C324.224 195.703 325.318 195.201 326.313 194.579C326.78 194.287 326.77 193.705 326.831 193.21L327.172 190.439L328.385 180.595L329.791 169.182L330.778 161.178L330.922 160.008C330.978 159.55 330.502 159.221 330.108 159.194L321.305 158.586L320.062 158.5C319.016 158.427 319.021 160.056 320.062 160.128L328.865 160.736L330.108 160.822L329.294 160.008L327.876 171.514L325.635 189.7L325.123 193.858L325.526 193.155L319.517 196.389L305.536 203.914L289.699 212.437L277.992 218.738C277.182 219.174 276.377 219.624 275.56 220.047C274.37 220.631 273.146 221.145 271.896 221.585C269.564 222.475 267.168 223.182 264.728 223.7C257.448 225.216 249.565 224.549 243.489 219.936C239.402 216.834 236.633 212.285 235.166 207.416L231.752 196.084L226.583 178.921L223.173 167.603L223.002 167.033L222.433 168.034C223.813 167.652 225.212 167.341 226.625 167.104C228.684 166.699 230.746 166.311 232.803 165.895C234.745 165.503 236.689 165.101 238.602 164.583C240.634 163.967 242.596 163.138 244.455 162.111C247.348 160.673 250.114 158.992 252.724 157.088L251.61 156.796L253.336 160.407L257.505 169.13L262.528 179.638L266.873 188.729C267.574 190.197 268.194 191.756 268.996 193.172C269.008 193.192 269.016 193.214 269.026 193.235C269.276 193.758 269.93 193.692 270.304 193.399L274.854 189.847L285.453 181.574L297.48 172.185L306.434 165.196C307.073 164.697 307.711 164.199 308.35 163.7C310.802 161.799 313.719 160.591 316.798 160.202C317.881 160.079 318.974 160.054 320.062 160.127C321.108 160.195 321.104 158.566 320.062 158.5Z" fill="black"/>
<path d="M222.09 167.185C222.695 168.503 226.519 168.144 231.734 166.518L228.767 160.381C224.204 163.247 221.491 165.878 222.09 167.185Z" fill="black"/>
<path d="M221.388 167.596C222.005 168.843 223.831 168.855 225.008 168.782C227.372 168.565 229.703 168.069 231.951 167.303C232.191 167.231 232.386 167.054 232.481 166.822C232.575 166.589 232.559 166.327 232.437 166.107L229.47 159.97C229.241 159.585 228.745 159.455 228.357 159.678C226.385 160.921 224.375 162.267 222.754 163.959C221.84 164.914 220.804 166.217 221.388 167.596C221.616 167.982 222.113 168.112 222.501 167.888C222.88 167.654 223.008 167.164 222.793 166.774C222.878 166.974 222.829 166.85 222.818 166.799C222.797 166.701 222.824 166.984 222.823 166.832C222.822 166.785 222.825 166.739 222.826 166.692C222.83 166.593 222.776 166.885 222.83 166.704C222.846 166.646 222.915 166.429 222.892 166.486C222.853 166.586 222.932 166.403 222.942 166.385C222.973 166.327 223.003 166.269 223.036 166.212C223.369 165.679 223.774 165.194 224.241 164.773C225.755 163.376 227.409 162.139 229.178 161.083L228.065 160.791L231.032 166.929L231.518 165.733C229.521 166.413 227.458 166.88 225.364 167.127C224.992 167.162 224.618 167.178 224.244 167.174C224.083 167.172 223.922 167.163 223.761 167.151C223.676 167.15 223.591 167.139 223.508 167.118C223.384 167.093 223.263 167.062 223.141 167.027C223.086 167.011 223.031 166.992 222.978 166.969C223.144 167.038 223.006 166.976 222.971 166.956C222.928 166.932 222.887 166.906 222.845 166.879C222.919 166.927 222.95 166.937 222.861 166.883C222.774 166.83 222.808 166.83 222.869 166.908C222.839 166.866 222.814 166.821 222.793 166.774C222.329 165.835 220.924 166.659 221.388 167.596Z" fill="black"/>
<path d="M249.896 151.329L244.617 140.283L223.114 145.566L226.099 156.961L228.812 167.541C231.515 166.699 237.513 164.493 240.71 163.025C245.451 160.85 249.543 158.467 252.313 156.385L249.896 151.329Z" fill="#FBDFAE"/>
<path d="M250.6 150.919L245.981 141.256L245.32 139.872C245.132 139.556 244.756 139.404 244.401 139.498L237.112 141.289L225.556 144.128L222.898 144.781C222.469 144.906 222.217 145.35 222.33 145.783L224.848 155.397C225.524 157.978 226.182 160.563 226.845 163.147L228.027 167.758C228.15 168.188 228.595 168.441 229.028 168.326C231.96 167.408 234.848 166.318 237.7 165.177C241.156 163.802 244.51 162.182 247.736 160.33C249.462 159.35 251.127 158.267 252.724 157.088C253.098 156.851 253.226 156.365 253.016 155.974L250.599 150.919C250.148 149.974 248.744 150.799 249.194 151.74L251.61 156.796L251.902 155.682C246.239 159.922 239.652 162.802 233.045 165.221C231.572 165.76 230.093 166.288 228.595 166.757L229.597 167.325L227.141 157.747C226.456 155.077 225.749 152.413 225.051 149.747L223.899 145.35L223.331 146.351L230.619 144.56L242.176 141.721L244.834 141.068L243.914 140.694L248.532 150.357L249.194 151.74C249.646 152.685 251.05 151.86 250.6 150.919Z" fill="black"/>
<path d="M226.641 159.402L224.103 150.428L225.925 132.873C225.925 132.873 229.034 126.428 222.665 122.213C229.329 112.01 239.862 114.838 241.296 124.687C241.881 128.705 242.545 132.055 243.126 134.613C243.872 137.901 244.986 141.095 246.446 144.134L248.592 148.599" fill="#FBDFAE"/>
<path d="M227.427 159.186L225.912 153.833L225.052 150.79C225.01 150.596 224.956 150.405 224.89 150.218C225.133 150.216 224.863 150.536 224.923 150.374C224.938 150.306 224.945 150.237 224.945 150.167L226.264 137.454L226.739 132.873L226.628 133.284C227.911 130.55 227.784 127.363 226.286 124.741C225.465 123.442 224.37 122.339 223.076 121.511L223.368 122.624C225.197 119.848 227.825 117.325 231.208 116.72C233.763 116.292 236.357 117.226 238.053 119.185C240.534 121.962 240.606 125.85 241.229 129.328C242.011 133.693 242.962 138.02 244.668 142.13C245.638 144.467 246.794 146.73 247.889 149.01C248.343 149.954 249.747 149.129 249.295 148.188C248.391 146.308 247.448 144.441 246.599 142.534C244.699 138.265 243.674 133.729 242.845 129.15C242.622 127.918 242.416 126.683 242.227 125.445C242.105 124.468 241.917 123.5 241.663 122.548C241.208 120.969 240.431 119.502 239.381 118.238C237.479 115.961 234.581 114.762 231.626 115.032C227.453 115.465 224.186 118.427 221.963 121.803C221.744 122.192 221.873 122.684 222.255 122.916C224.081 124.143 225.453 125.896 225.796 128.105C225.85 128.489 225.874 128.877 225.87 129.265C225.868 129.464 225.86 129.662 225.845 129.86C225.839 129.947 225.831 130.035 225.822 130.122C225.818 130.161 225.788 130.406 225.805 130.284C225.723 130.868 225.586 131.443 225.396 132.001C225.341 132.165 225.274 132.323 225.215 132.485C225.353 132.106 225.131 132.738 225.125 132.765C225.088 132.951 225.082 133.148 225.063 133.336L224.73 136.548L223.706 146.416L223.353 149.815C223.295 150.297 223.341 150.786 223.489 151.248L225.794 159.398L225.857 159.619C226.141 160.625 227.713 160.198 227.426 159.186L227.427 159.186Z" fill="black"/>
<path d="M235.647 127.107C235.989 123.701 233.374 116.566 231.814 111.097C230.253 105.628 233.993 103.217 236.858 108.264C240.43 114.776 241.636 124.814 241.984 128.708C242.09 129.888 242.281 131.059 242.557 132.211L243.448 135.935" fill="#FBDFAE"/>
<path d="M236.461 127.107C236.621 125.367 236.207 123.559 235.806 121.877C235.283 119.682 234.615 117.523 233.952 115.367C233.612 114.264 233.27 113.161 232.941 112.055C232.589 111.059 232.362 110.024 232.266 108.973C232.198 108.239 232.345 107.501 232.689 106.849C232.87 106.475 233.271 106.261 233.682 106.319C233.575 106.31 233.902 106.37 233.968 106.392C234.083 106.433 234.193 106.485 234.297 106.548C234.641 106.757 234.95 107.019 235.213 107.325C235.867 108.115 236.402 108.997 236.802 109.943C237.692 111.881 238.412 113.893 238.953 115.956C239.929 119.599 240.616 123.314 241.006 127.065C241.163 128.951 241.439 130.825 241.832 132.676L242.663 136.152C242.907 137.17 244.477 136.739 244.233 135.719L243.444 132.42C243.079 130.782 242.823 129.121 242.675 127.45C242.29 123.524 241.597 119.635 240.602 115.818C240.028 113.613 239.268 111.46 238.33 109.383C237.514 107.616 236.396 105.461 234.4 104.823C232.778 104.304 231.407 105.373 230.898 106.874C230.204 108.924 230.957 111.119 231.552 113.089C232.331 115.673 233.168 118.24 233.865 120.847C234.399 122.844 235.025 125.017 234.833 127.106C234.837 127.555 235.199 127.917 235.647 127.92C236.093 127.911 236.452 127.552 236.461 127.106L236.461 127.107Z" fill="black"/>
<path d="M238.544 128.836C238.544 128.836 236.299 115.157 230.919 107.475C227.52 102.77 224.066 105.576 226.213 110.841C228.361 116.107 231.449 124.785 231.481 128.207" fill="#FBDFAE"/>
<path d="M239.328 128.62C239.017 126.73 238.584 124.856 238.115 123C237.177 119.117 235.877 115.331 234.232 111.691C233.401 109.75 232.317 107.929 231.006 106.275C229.896 104.968 227.94 103.583 226.209 104.625C224.548 105.624 224.57 107.969 224.96 109.617C225.254 110.646 225.621 111.653 226.057 112.63C226.459 113.656 226.851 114.686 227.23 115.722C228.083 118.049 228.887 120.397 229.572 122.78C230.08 124.55 230.639 126.428 230.667 128.208C230.683 129.254 232.311 129.257 232.294 128.208C232.211 126.662 231.944 125.132 231.5 123.65C230.975 121.645 230.338 119.67 229.662 117.711C228.979 115.731 228.251 113.768 227.478 111.82C226.869 110.282 225.823 108.178 226.595 106.568C226.629 106.5 226.666 106.432 226.708 106.368C226.72 106.347 226.828 106.197 226.76 106.283C226.803 106.229 227.03 106.026 226.962 106.075C227.132 105.94 227.347 105.875 227.563 105.892C228.229 105.928 228.955 106.472 229.477 107.009C230.841 108.412 231.78 110.324 232.619 112.073C234.209 115.51 235.466 119.091 236.375 122.768C236.916 124.84 237.41 126.938 237.758 129.052C237.881 129.484 238.326 129.737 238.76 129.621C239.186 129.493 239.437 129.052 239.328 128.62H239.328Z" fill="black"/>
<path d="M234.564 129.918C234.564 129.918 231.625 116.371 225.861 108.973C222.226 104.448 218.919 107.426 221.333 112.575C223.746 117.725 227.272 126.234 227.479 129.65" fill="#FBDFAE"/>
<path d="M235.349 129.702C234.942 127.827 234.413 125.974 233.849 124.142C232.721 120.328 231.24 116.628 229.427 113.089C228.505 111.205 227.345 109.447 225.974 107.86C224.813 106.604 222.833 105.263 221.114 106.301C219.47 107.295 219.528 109.611 219.965 111.228C220.318 112.319 220.758 113.38 221.282 114.4C221.715 115.355 222.138 116.314 222.55 117.278C223.537 119.583 224.469 121.916 225.284 124.288C225.869 125.993 226.554 127.986 226.665 129.65C226.734 130.69 228.362 130.698 228.293 129.65C228.135 128.111 227.795 126.596 227.278 125.138C226.652 123.162 225.914 121.221 225.14 119.3C224.347 117.334 223.511 115.386 222.632 113.456C221.946 111.949 220.769 109.914 221.522 108.218C221.611 108.044 221.728 107.887 221.869 107.751C222.04 107.614 222.257 107.548 222.475 107.564C223.122 107.586 223.839 108.064 224.368 108.553C225.802 109.881 226.834 111.723 227.76 113.423C229.531 116.777 230.976 120.292 232.075 123.922C232.722 125.966 233.324 128.038 233.78 130.134C234.002 131.158 235.572 130.725 235.349 129.702L235.349 129.702Z" fill="black"/>
<path d="M231.159 131.015C229.771 127.883 228.122 124.873 226.231 122.016C219.557 111.434 205.705 123.379 205.705 123.379C201.911 126.995 203.386 131.811 208.528 129.132C213.255 126.669 220.027 119.974 222.336 130.183C223.761 136.479 216.774 139.31 212.635 131.047C212.049 129.853 210.751 129.183 209.438 129.395L209.368 129.406C207.932 129.647 206.873 130.881 206.855 132.338C206.793 136.479 212.837 145.744 223.115 148.008L227.184 161.03" fill="#FBDFAE"/>
<path d="M231.944 130.798C231.495 129.7 230.964 128.633 230.417 127.581C229.8 126.392 229.148 125.223 228.461 124.072C227.734 122.763 226.914 121.508 226.006 120.318C224.746 118.731 223 117.601 221.036 117.103C219.183 116.703 217.261 116.753 215.43 117.249C212.273 118.027 209.32 119.675 206.707 121.578C206.16 121.959 205.633 122.368 205.129 122.804C203.628 124.16 202.293 126.518 202.9 128.598C203.516 130.709 205.799 131.038 207.634 130.402C209.459 129.77 211.066 128.564 212.701 127.565C214.132 126.689 215.57 125.81 217.223 125.544C217.795 125.458 218.38 125.526 218.919 125.738C219.579 126.09 220.115 126.636 220.454 127.302C221.033 128.377 221.428 129.541 221.622 130.746C221.786 131.573 221.743 132.427 221.498 133.233C221.398 133.563 221.246 133.875 221.047 134.157C220.979 134.271 220.895 134.375 220.799 134.466C220.745 134.524 220.689 134.58 220.631 134.634C220.597 134.666 220.402 134.832 220.496 134.759C220.373 134.853 220.242 134.938 220.106 135.013C219.991 135.089 219.866 135.146 219.734 135.184C219.439 135.295 219.126 135.35 218.812 135.347C218.057 135.332 217.321 135.106 216.688 134.694C215.791 134.116 215.021 133.361 214.426 132.475C213.635 131.347 213.201 129.969 212.019 129.169C210.905 128.451 209.502 128.347 208.295 128.894C207.077 129.446 206.236 130.594 206.076 131.922C206.009 132.646 206.073 133.377 206.266 134.079C206.72 135.756 207.46 137.343 208.452 138.77C211.069 142.687 214.776 145.752 219.116 147.584C220.338 148.098 221.604 148.503 222.898 148.793L222.33 148.224L225.893 159.625L226.399 161.247C226.711 162.243 228.283 161.818 227.969 160.814L224.406 149.413L223.899 147.792C223.823 147.516 223.607 147.3 223.331 147.223C218.682 146.151 214.5 143.612 211.403 139.983C210.192 138.6 209.19 137.048 208.428 135.375C208.151 134.747 207.936 134.094 207.785 133.425C207.754 133.283 207.728 133.141 207.706 132.998C207.686 132.873 207.721 133.133 207.707 133.009C207.703 132.976 207.698 132.942 207.695 132.909C207.689 132.833 207.681 132.757 207.677 132.68C207.637 132.264 207.702 131.844 207.865 131.459C208.304 130.543 209.295 130.028 210.296 130.198C211.662 130.437 212.035 131.769 212.688 132.798C213.811 134.568 215.428 136.283 217.53 136.814C219.084 137.24 220.748 136.806 221.895 135.675C223.125 134.414 223.491 132.569 223.275 130.868C223.015 128.824 222.259 126.324 220.63 124.937C219.358 123.854 217.741 123.688 216.165 124.11C214.486 124.559 212.95 125.493 211.486 126.402C209.972 127.342 208.393 128.58 206.635 129C206.26 129.095 205.871 129.118 205.488 129.066C205.402 129.048 205.316 129.025 205.232 128.997C205.084 128.95 205.18 128.988 205.079 128.932C204.959 128.882 204.852 128.803 204.769 128.702C204.678 128.612 204.717 128.654 204.696 128.626C204.643 128.55 204.595 128.471 204.553 128.389C204.488 128.266 204.553 128.418 204.507 128.285C204.476 128.192 204.449 128.097 204.428 128.002C204.377 127.683 204.379 127.358 204.434 127.04C204.735 125.731 205.478 124.565 206.539 123.74C206.665 123.638 206.792 123.538 206.919 123.438C207.03 123.351 206.784 123.541 206.902 123.451C206.943 123.421 206.982 123.39 207.023 123.359C207.126 123.281 207.229 123.204 207.333 123.127C207.818 122.768 208.312 122.423 208.816 122.092C210.141 121.211 211.538 120.444 212.992 119.797C216.009 118.473 219.698 117.724 222.673 119.516C224.76 120.773 225.942 123.009 227.144 125.042C228.224 126.847 229.21 128.706 230.098 130.612C230.187 130.805 230.273 130.998 230.358 131.193C230.473 131.455 230.322 131.102 230.375 131.231C230.506 131.655 230.944 131.904 231.376 131.799C231.808 131.678 232.061 131.231 231.944 130.798L231.944 130.798Z" fill="black"/>
<path d="M368.861 232.409C364.588 250.315 298.323 235.934 298.323 235.934L318.062 166.567C318.749 162.565 324.406 159.611 328.168 159.871L353.27 161.606C357.357 161.888 359.376 163.726 360.716 169.846C360.716 169.846 368.39 212.368 368.861 232.409Z" fill="#A8542A"/>
<path d="M321.415 160.219L326.43 160.565L337.443 161.326L348.368 162.081C350.057 162.198 351.749 162.295 353.436 162.432C355.263 162.581 356.885 163.197 357.933 164.709C359.026 166.287 359.588 168.277 359.945 170.141C360.263 171.794 360.53 173.459 360.815 175.119C361.439 178.766 362.042 182.417 362.624 186.071C363.386 190.851 364.109 195.637 364.793 200.429C365.514 205.519 366.182 210.618 366.752 215.727C367.265 220.328 367.711 224.942 367.941 229.566C367.988 230.513 368.024 231.461 368.048 232.409L368.451 231.706C363.872 233.696 358.894 234.812 353.977 235.611C348.425 236.472 342.826 236.995 337.211 237.178C331.874 237.39 326.53 237.386 321.193 237.229C317.096 237.109 313.003 236.899 308.914 236.597C307.643 236.504 306.372 236.4 305.103 236.286C304.522 236.233 303.916 236.115 303.332 236.115C303.307 236.113 303.283 236.111 303.258 236.107L304.072 236.921L304.65 224.353L305.036 215.961L305.16 213.263C305.17 213.029 305.185 212.795 305.192 212.561C305.201 212.248 305.231 212.559 305.174 212.593C305.296 212.52 305.39 211.894 305.429 211.766L306.038 209.791L308.072 203.194L313.377 185.985C314.477 182.417 315.652 178.862 316.679 175.272C316.696 175.215 316.714 175.159 316.732 175.102C317.041 174.099 315.47 173.67 315.162 174.669L312.391 183.659L307.066 200.934L303.673 211.939C303.433 212.718 303.515 213.632 303.478 214.435L303.123 222.157L302.457 236.642L302.444 236.921C302.454 237.366 302.813 237.725 303.258 237.735C304.785 237.9 306.317 238.025 307.847 238.144C311.758 238.45 315.674 238.67 319.596 238.806C324.886 238.992 330.183 239.03 335.474 238.867C341.185 238.72 346.884 238.252 352.544 237.466C357.658 236.73 362.793 235.673 367.62 233.794C368.176 233.578 368.726 233.349 369.272 233.112C369.525 232.969 369.68 232.699 369.676 232.409C369.57 227.996 369.194 223.591 368.75 219.201C368.227 214.035 367.582 208.881 366.882 203.736C366.199 198.711 365.463 193.693 364.674 188.683C364.05 184.68 363.4 180.682 362.725 176.688C362.355 174.501 361.977 172.315 361.591 170.132C361.038 167.027 359.926 163.2 356.879 161.671C354.964 160.71 352.685 160.752 350.586 160.607L340.585 159.916L328.912 159.109L321.767 158.615L321.415 158.591C320.37 158.519 320.374 160.147 321.415 160.219L321.415 160.219Z" fill="black"/>
<path d="M299.105 213.868L283.769 214.766C273.383 215.374 264.28 222.169 261.038 232.055C259.902 235.518 259.653 238.952 261.244 241.714C277.034 245.38 299.029 238.048 299.029 238.048" fill="#FBDFAE"/>
<path d="M299.106 213.054L286.454 213.795C284.425 213.859 282.402 214.048 280.395 214.362C276.49 215.081 272.798 216.674 269.594 219.02C266.383 221.364 263.75 224.412 261.898 227.93C259.826 231.912 258.235 237.057 260.164 241.383C260.422 241.962 260.643 242.414 261.302 242.562C261.809 242.675 262.32 242.777 262.832 242.867C263.851 243.047 264.878 243.186 265.907 243.293C267.964 243.499 270.032 243.585 272.1 243.548C276.186 243.464 280.26 243.075 284.288 242.387C289.274 241.591 294.194 240.429 299.008 238.91C299.088 238.885 299.167 238.86 299.245 238.833C300.234 238.504 299.81 236.931 298.813 237.264C296.11 238.164 293.328 238.863 290.554 239.498C284.577 240.932 278.467 241.742 272.323 241.917C268.675 242.03 265.028 241.698 261.46 240.929L261.947 241.303C260.576 238.863 260.785 235.978 261.494 233.364C262.123 231.079 263.091 228.902 264.368 226.906C266.782 223.144 270.174 220.11 274.181 218.128C277.337 216.593 280.772 215.716 284.278 215.55L292.09 215.093L299.106 214.682C300.147 214.621 300.154 212.993 299.106 213.054H299.106Z" fill="black"/>
<path d="M455.339 244.412L401.8 326.285L153.479 241.897L430.328 244.866L455.339 244.412Z" fill="#FFC41F"/>
<path d="M454.637 244.001L436.548 271.663L407.716 315.753L401.098 325.874L402.017 325.5L395.36 323.237L377.244 317.081L350.573 308.017L318.049 296.964L282.284 284.81L246.179 272.541L212.646 261.145L184.194 251.476L163.811 244.549L157.458 242.391C156.386 242.026 155.228 241.457 154.111 241.253C153.97 241.216 153.831 241.169 153.697 241.112L153.48 242.711L162.284 242.806L185.793 243.058L220.3 243.428L261.347 243.868L305.466 244.341L348.067 244.798L385.705 245.202L413.878 245.504L428.943 245.665C436.061 245.742 443.194 245.446 450.311 245.317L455.339 245.226C456.386 245.207 456.389 243.579 455.339 243.598C446.937 243.751 438.522 244.061 430.119 244.05C426.398 244.045 422.676 243.97 418.956 243.93L393.446 243.657L357.926 243.276L315.939 242.826L272.047 242.355L229.675 241.9L193.393 241.511L166.729 241.225C162.501 241.18 158.267 241.07 154.039 241.089C153.853 241.09 153.666 241.085 153.48 241.083C152.532 241.073 152.415 242.394 153.264 242.682L159.922 244.945L178.038 251.101L204.708 260.165L237.232 271.217L272.997 283.371L309.102 295.641L342.636 307.036L371.087 316.705L391.47 323.632C394.698 324.729 397.909 325.934 401.17 326.929C401.31 326.971 401.447 327.022 401.585 327.069C401.94 327.163 402.315 327.01 402.504 326.695L420.593 299.033L449.425 254.943L456.042 244.823C456.617 243.943 455.208 243.127 454.637 244.001Z" fill="black"/>
<path d="M410.555 313.599C408.82 305.919 403.058 299.968 395.726 298.285L168.608 246.152L440.623 266.943L410.555 313.599Z" fill="black" stroke="black" stroke-width="1.3457"/>
<path d="M153.479 241.897C156.213 240.731 466.978 227.768 466.978 227.768L536.519 313.885L153.479 241.897Z" fill="#FFC41F"/>
<path d="M153.696 242.682C153.97 242.574 153.836 242.648 153.909 242.638C154.206 242.598 154.507 242.578 154.806 242.552C155.877 242.459 156.951 242.392 158.025 242.323C161.857 242.078 165.693 241.876 169.529 241.674C182.791 240.979 196.057 240.361 209.323 239.746C227.565 238.901 245.808 238.077 264.052 237.276C284.452 236.373 304.852 235.482 325.253 234.603C344.959 233.751 364.665 232.907 384.371 232.068C400.532 231.38 416.693 230.696 432.853 230.014C442.617 229.603 452.381 229.193 462.145 228.784L465.512 228.643C465.842 228.629 466.632 228.75 466.928 228.584C466.51 228.818 466.43 228.017 466.559 228.537C466.647 228.888 467.259 229.404 467.481 229.679L471.577 234.75L505.251 276.452L534.36 312.5L535.944 314.461L536.736 313.101L526.507 311.178L498.666 305.946L457.327 298.177L407.051 288.728L351.988 278.379L296.409 267.934L244.584 258.194L200.656 249.938L169.2 244.026C164.242 243.094 159.288 242.132 154.325 241.23C154.115 241.192 153.905 241.152 153.696 241.112C152.672 240.92 152.233 242.488 153.263 242.682L163.492 244.605L191.333 249.837L232.672 257.606L282.949 267.055L338.012 277.403L393.591 287.849L445.415 297.589L489.343 305.845L520.799 311.756C525.757 312.688 530.711 313.65 535.675 314.552C535.884 314.59 536.094 314.631 536.303 314.67C536.656 314.755 537.023 314.599 537.206 314.285C537.388 313.971 537.343 313.575 537.095 313.31L515.261 286.271L478.691 240.984L468.444 228.294C467.437 227.047 467.074 226.95 465.541 227.014C457.852 227.335 450.163 227.658 442.474 227.982C427.563 228.609 412.652 229.239 397.742 229.872C378.524 230.688 359.307 231.509 340.09 232.335C319.533 233.22 298.976 234.113 278.42 235.015C259.347 235.853 240.275 236.705 221.204 237.572C206.457 238.245 191.712 238.944 176.968 239.666C169.524 240.039 162.039 240.261 154.615 240.941C154.159 240.938 153.704 240.996 153.263 241.112C152.3 241.492 152.719 243.067 153.696 242.682Z" fill="black"/>
<path d="M351.009 161.45L366.903 162.451C372.433 162.799 377.032 166.836 378.095 172.274L388.576 213.738C389.646 217.97 388.752 222.459 386.143 225.958C383.534 229.457 379.487 231.594 375.126 231.775L289.135 235.359V214.59L357.679 205.524L352.886 176.577" fill="#A8542A"/>
<path d="M351.009 162.263L359.057 162.771C361.765 162.941 364.485 163.053 367.188 163.286C369.884 163.539 372.401 164.743 374.289 166.684C375.823 168.312 376.873 170.335 377.32 172.527C377.671 174.023 378.074 175.508 378.45 176.998L380.887 186.637L383.8 198.16L386.358 208.28L387.733 213.721C388.794 217.762 387.98 222.066 385.519 225.441C383.033 228.777 379.17 230.808 375.013 230.966C374.012 231.009 373.011 231.051 372.009 231.091L365.543 231.361L356.408 231.741L345.523 232.195L333.691 232.688L321.751 233.186L310.539 233.653L300.859 234.056L293.631 234.357L289.648 234.523L289.135 234.545L289.949 235.359V214.59L289.135 215.404L290.969 215.161L295.96 214.501L303.341 213.525L312.346 212.334L322.159 211.036L332.115 209.719L341.4 208.491L349.247 207.453L354.891 206.706C355.782 206.588 356.674 206.471 357.565 206.353L357.68 206.337C357.931 206.33 358.166 206.209 358.318 206.009C358.47 205.81 358.524 205.551 358.465 205.307L356.837 195.479L354.264 179.938L353.671 176.361C353.549 175.93 353.103 175.677 352.67 175.793C352.244 175.921 351.993 176.362 352.102 176.794L353.729 186.622L356.303 202.163L356.895 205.74L357.68 204.71L355.846 204.952L350.855 205.612L343.474 206.589L334.469 207.78L324.656 209.078L314.7 210.394L305.415 211.622L297.568 212.66L291.924 213.407C291.033 213.525 290.141 213.643 289.25 213.761L289.135 213.776C288.69 213.787 288.333 214.145 288.321 214.59V235.359C288.326 235.806 288.688 236.168 289.135 236.173L291.292 236.083L297.152 235.839L305.896 235.474L316.591 235.029L328.459 234.534L340.59 234.028L352.068 233.55L362.084 233.133L369.807 232.811L374.32 232.623C376.834 232.587 379.308 231.996 381.567 230.893C386.499 228.302 389.657 223.259 389.834 217.691C389.893 215.456 389.321 213.361 388.781 211.225L386.652 202.801L383.776 191.424L380.988 180.398L379.167 173.194C379.072 172.816 378.969 172.439 378.881 172.059C378.315 169.38 376.944 166.938 374.952 165.06C372.828 163.117 370.126 161.924 367.259 161.665C366.347 161.581 365.428 161.544 364.513 161.486L353.436 160.789L351.009 160.636C349.963 160.57 349.967 162.198 351.009 162.263L351.009 162.263Z" fill="black"/>
<path d="M267.254 236.535C267.511 235.436 267.849 234.358 268.265 233.308C269.02 231.197 270.157 229.244 271.62 227.544C272.465 226.569 273.523 225.8 274.713 225.299C275.138 225.169 275.387 224.729 275.281 224.297C275.159 223.866 274.713 223.613 274.28 223.729C269.766 225.489 267.343 230.455 266.027 234.831C265.901 235.251 265.779 235.674 265.684 236.102C265.458 237.123 267.027 237.559 267.254 236.535L267.254 236.535Z" fill="black"/>
<path d="M274.896 236.036C274.885 235.868 274.883 235.7 274.89 235.532C274.895 235.34 274.908 235.147 274.927 234.955C274.933 234.9 274.94 234.846 274.945 234.791C274.964 234.602 274.921 234.93 274.946 234.783C274.967 234.659 274.985 234.534 275.009 234.411C275.063 234.124 275.133 233.841 275.217 233.562C275.261 233.416 275.31 233.271 275.363 233.127C275.39 233.053 275.419 232.979 275.448 232.905C275.453 232.893 275.497 232.788 275.46 232.875C275.417 232.975 275.495 232.798 275.504 232.78C275.647 232.469 275.812 232.168 275.997 231.879C276.045 231.804 276.095 231.73 276.147 231.657C276.167 231.629 276.305 231.442 276.23 231.538C276.354 231.378 276.489 231.226 276.627 231.079C277.273 230.394 278.064 229.864 278.943 229.528C279.367 229.398 279.617 228.959 279.511 228.527C279.389 228.095 278.943 227.842 278.51 227.958C276.715 228.618 275.217 229.9 274.289 231.572C273.686 232.726 273.339 233.996 273.272 235.296C273.254 235.542 273.253 235.789 273.269 236.036C273.28 236.481 273.638 236.839 274.083 236.85C274.531 236.846 274.893 236.484 274.896 236.036L274.896 236.036Z" fill="black"/>
<path d="M327.074 159.941L326.294 164.769C325.61 169.007 325.953 173.349 327.294 177.428L330.352 186.729L339.413 178.378C342.703 175.346 345.184 171.539 346.627 167.304L348.657 161.35L327.074 159.941Z" fill="white"/>
<path d="M326.289 159.724L325.611 163.923C325.136 166.62 325.035 169.37 325.311 172.094C325.75 175.931 327.136 179.55 328.335 183.197L329.567 186.945C329.649 187.22 329.869 187.433 330.147 187.506C330.424 187.579 330.72 187.503 330.927 187.304L338.709 180.133C340.273 178.756 341.72 177.25 343.035 175.632C345.005 173.064 346.531 170.185 347.551 167.114L349.442 161.567C349.506 161.322 349.453 161.062 349.3 160.861C349.147 160.66 348.91 160.54 348.657 160.537L341.377 160.061L329.759 159.302L327.074 159.127C326.028 159.058 326.032 160.686 327.074 160.755L334.354 161.23L345.972 161.989L348.657 162.165L347.872 161.134L346.184 166.085C345.313 168.793 344.055 171.36 342.449 173.708C341.116 175.515 339.594 177.174 337.909 178.659L333.281 182.924L329.776 186.153L331.137 186.513L328.522 178.558C327.928 176.865 327.46 175.13 327.123 173.368C326.646 170.503 326.647 167.579 327.123 164.713L327.859 160.157C327.964 159.725 327.715 159.286 327.29 159.156C326.857 159.04 326.411 159.293 326.289 159.724Z" fill="black"/>
<path d="M330.047 186.729L324.853 209.593L330.047 186.729Z" fill="#458DC9"/>
<path d="M329.261 186.512L327.51 194.222L324.714 206.529L324.067 209.377C323.836 210.397 325.405 210.832 325.637 209.809L327.388 202.099L330.184 189.793L330.831 186.945C331.063 185.925 329.494 185.489 329.261 186.512Z" fill="black"/>
<path d="M326.701 162.248L328.918 151.481L388.416 149.226L388.13 158.515C388.057 160.869 387.022 163.091 385.266 164.661C383.509 166.23 381.186 167.011 378.838 166.819L335.968 163.324" fill="white"/>
<path d="M387.602 149.226L387.409 155.493C387.379 156.454 387.35 157.416 387.32 158.377C387.285 159.868 386.833 161.32 386.016 162.568C384.392 164.959 381.592 166.274 378.715 165.995C377.713 165.915 376.71 165.834 375.708 165.75L361.74 164.612L345.202 163.263L339.152 162.77C338.139 162.688 337.119 162.562 336.103 162.522C336.058 162.52 336.013 162.514 335.968 162.511C334.923 162.425 334.929 164.054 335.968 164.138L343.729 164.771L360.154 166.11L374.893 167.312L378.508 167.606C381.13 167.863 383.743 167.038 385.743 165.323C387.224 164.028 388.26 162.3 388.704 160.383C388.894 159.378 388.987 158.357 388.98 157.335L389.212 149.798L389.229 149.226C389.262 148.178 387.634 148.179 387.601 149.226L387.602 149.226Z" fill="black"/>
<path d="M327.486 162.464L329.429 153.026L329.703 151.698L328.918 152.295L333.249 152.126L343.597 151.723L356.163 151.234L366.985 150.812C368.744 150.743 370.513 150.726 372.269 150.606C372.293 150.605 372.318 150.604 372.342 150.604C373.386 150.563 373.392 148.935 372.342 148.976L368.011 149.144L357.663 149.548L345.097 150.037L334.275 150.459C332.516 150.527 330.747 150.545 328.991 150.665C328.967 150.666 328.942 150.667 328.918 150.668C328.553 150.673 328.235 150.915 328.133 151.265L326.189 160.703L325.916 162.032C325.705 163.054 327.274 163.491 327.486 162.465V162.464Z" fill="black"/>
<path d="M401.105 160.505L388.057 159.405L388.416 149.225C388.416 149.225 398.667 159.662 401.105 160.505Z" fill="black" stroke="black" stroke-width="1.3457"/>
<ellipse cx="334.276" cy="193.778" rx="1.4099" ry="1.40991" fill="black" stroke="black" stroke-width="1.3457"/>
<circle cx="331.456" cy="204.775" r="1.40991" fill="black" stroke="black" stroke-width="1.3457"/>
<path d="M225.549 175.701C227.794 175.619 230.029 175.352 232.23 174.903C237.331 173.969 242.27 172.303 246.895 169.958C250.129 168.308 253.151 166.274 255.898 163.9C256.691 163.213 255.535 162.066 254.747 162.749C250.212 166.603 244.97 169.537 239.314 171.385C237.085 172.132 234.811 172.738 232.505 173.197C230.93 173.518 229.34 173.759 227.741 173.921C227.013 173.993 226.28 174.06 225.549 174.073C224.502 174.091 224.499 175.719 225.549 175.701H225.549Z" fill="black"/>
<path d="M298.429 213.797L298.465 221.062L298.523 232.702L298.536 235.367C298.541 236.414 300.169 236.416 300.164 235.367L300.128 228.102L300.07 216.462L300.057 213.797C300.051 212.75 298.424 212.748 298.429 213.797Z" fill="black"/>
<path d="M430.47 92.61C431.239 89.4757 431.809 87.7382 434.25 84.84C440.243 80.4475 439.692 81.4425 441.39 80.85H445.59L449.58 82.11L452.31 84.42L453.99 86.94L460.92 84.21L468.06 85.89L473.73 90.72L476.04 97.23L481.71 96.6L485.07 98.91L486.96 101.43L488.01 104.37L488.85 109.83L422.91 110.25C415.98 94.29 435.3 90.7957 430.47 92.61Z" fill="white"/>
<path d="M423.096 109.985C422.489 108.472 422.129 106.87 422.029 105.243C421.787 101.957 422.663 98.6695 425.056 96.3107C425.822 95.5665 426.682 94.9269 427.615 94.4084C428.142 94.1113 428.686 93.8451 429.244 93.6113C429.538 93.488 429.836 93.3738 430.135 93.2664C430.412 93.1673 430.723 93.1328 430.844 92.8354C431.061 92.3027 431.125 91.6697 431.305 91.1173C431.477 90.5874 431.678 90.0673 431.907 89.5594C432.349 88.5801 432.893 87.6495 433.528 86.7826C435.808 83.6777 439.412 81.4452 443.286 81.1311C447.061 80.7819 450.723 82.5319 452.822 85.6881C453.112 86.1278 453.376 86.5842 453.612 87.055C453.727 87.2463 453.974 87.311 454.169 87.201C457.835 85.1825 462.112 84.1729 466.181 85.5478C469.441 86.6498 472.09 89.122 473.808 92.0607C474.727 93.6263 475.381 95.3322 475.746 97.1102C475.809 97.3246 476.031 97.4505 476.247 97.3945C479.072 96.7543 482.311 96.6829 484.593 98.7433C486.498 100.463 487.337 103.058 487.858 105.494C488.182 107.012 488.384 108.552 488.556 110.094L488.963 109.687C485.24 109.507 481.505 109.506 477.778 109.481C472.082 109.442 466.386 109.444 460.691 109.456C450.24 109.479 439.789 109.537 429.338 109.629C427.126 109.647 424.915 109.666 422.704 109.687C422.485 109.695 422.312 109.875 422.312 110.094C422.312 110.313 422.485 110.493 422.704 110.501C428.941 110.441 435.178 110.392 441.415 110.356C452.926 110.284 464.439 110.224 475.95 110.284C480.285 110.306 484.632 110.292 488.963 110.501C489.188 110.5 489.369 110.318 489.37 110.094C488.802 104.998 487.812 97.8522 481.847 96.4293C479.933 95.9726 477.929 96.1793 476.031 96.6097L476.531 96.8939C475.821 93.4392 474.067 90.286 471.506 87.8613C468.756 85.2361 465.034 83.8793 461.24 84.1185C458.603 84.3619 456.051 85.1737 453.758 86.4981L454.315 86.6441C452.399 82.8559 448.758 80.3622 444.474 80.2801C440.29 80.1998 436.237 82.2901 433.557 85.4451C431.819 87.5126 430.618 89.9767 430.06 92.6192L430.344 92.3349C426.438 93.6528 422.992 96.1996 421.728 100.263C420.903 102.917 421.059 105.82 421.756 108.484C421.901 109.069 422.086 109.643 422.311 110.202C422.512 110.677 423.299 110.468 423.096 109.985Z" fill="black"/>
<path d="M259.74 66.99L263.31 61.53L268.56 59.64L272.97 60.27L276.54 62.79L278.85 66.99L281.79 66.15L284.52 66.78L286.83 68.88L287.88 71.4L290.61 72.03L292.5 74.13L293.76 79.8H247.14L247.77 74.76L250.5 70.77L254.49 68.04L259.74 66.99Z" fill="white"/>
<path d="M293.708 79.0952H249.191C248.589 79.043 247.985 79.043 247.383 79.0952C247.356 79.0976 247.328 79.0976 247.3 79.0952L247.693 79.394C247.677 79.2946 247.692 79.4666 247.695 79.4154C247.693 79.3434 247.685 79.2715 247.672 79.2006C247.648 78.9393 247.638 78.6767 247.636 78.4143C247.629 77.5528 247.726 76.6935 247.924 75.8549C248.566 73.1746 250.292 70.881 252.69 69.5212C254.845 68.2688 257.335 67.6918 259.795 67.4366C259.975 67.4299 260.132 67.3103 260.187 67.1378C261.272 63.9703 263.627 61.2753 266.909 60.3288C269.859 59.4863 273.035 60.1898 275.353 62.1993C276.831 63.5335 277.927 65.2385 278.526 67.1378C278.562 67.258 278.651 67.3553 278.767 67.4026C278.883 67.4498 279.014 67.4419 279.124 67.3811C281.144 66.4089 283.486 66.2239 285.271 67.7702C286.417 68.7496 287.184 70.1003 287.436 71.5869C287.44 71.81 287.62 71.99 287.843 71.9939C289.609 71.8283 291.294 72.7675 292.081 74.3561C292.747 75.6549 293.143 77.0751 293.245 78.5311C293.275 78.8533 293.3 79.1782 293.301 79.5021C293.309 79.721 293.489 79.8942 293.708 79.8942C293.927 79.8942 294.107 79.721 294.115 79.5021C294.111 76.879 293.34 73.5783 291.084 71.9905C290.13 71.354 288.985 71.0677 287.843 71.18L288.25 71.587C287.988 69.817 287.078 68.2072 285.697 67.0696C283.622 65.3859 281.023 65.5669 278.713 66.6782L279.311 66.9214C278.159 63.474 275.651 60.5257 272.069 59.5199C268.843 58.6499 265.395 59.4378 262.866 61.6228C261.259 63.0479 260.063 64.8775 259.402 66.9214L259.795 66.6226C255.833 67.0335 251.643 68.2929 249.092 71.5534C247.655 73.4308 246.86 75.7204 246.825 78.0842C246.806 78.5943 246.834 79.1051 246.908 79.6102C246.957 79.7864 247.117 79.9084 247.3 79.909H291.817C292.415 79.909 293.028 79.9474 293.625 79.909C293.652 79.9072 293.68 79.909 293.708 79.909C293.926 79.8998 294.098 79.7203 294.098 79.5021C294.098 79.2839 293.926 79.1044 293.708 79.0952Z" fill="black"/>
<path d="M168.39 309.12L171.33 304.08L176.58 301.98L182.25 303.66L184.56 306.6L186.24 309.96H188.55L190.23 311.64L192.54 316.26L192.12 320.46H153.06L154.74 314.79L158.1 311.22L162.93 309.12H168.39Z" fill="white"/>
<path d="M192.265 319.552H155.119C154.611 319.502 154.1 319.502 153.592 319.552C153.57 319.554 153.548 319.554 153.525 319.552L153.932 319.959C153.97 318.621 154.257 317.301 154.777 316.067C155.844 313.358 158.012 311.23 160.741 310.215C163.209 309.295 165.887 309.187 168.487 309.412C168.67 309.41 168.829 309.289 168.879 309.113C169.821 306.087 172.019 303.533 175.192 302.812C178.039 302.213 180.994 303.108 183.03 305.185C184.365 306.575 185.298 308.302 185.728 310.182C185.764 310.302 185.852 310.4 185.968 310.447C186.085 310.494 186.216 310.486 186.326 310.425C188.089 309.584 189.754 311.554 190.545 312.881C191.819 314.966 192.292 317.443 191.873 319.851C191.77 320.362 192.554 320.581 192.658 320.067C193.155 317.317 192.577 314.482 191.045 312.146C189.961 310.481 188.013 308.721 185.915 309.722L186.513 309.965C185.662 306.542 183.402 303.537 180.013 302.328C177.048 301.275 173.748 301.852 171.315 303.848C169.775 305.184 168.657 306.937 168.094 308.897L168.487 308.598C164.342 308.24 159.813 308.813 156.675 311.795C154.884 313.557 153.7 315.844 153.295 318.324C153.19 318.863 153.13 319.41 153.118 319.959C153.121 320.182 153.302 320.363 153.525 320.366H190.672C191.176 320.366 191.695 320.402 192.198 320.366C192.22 320.364 192.243 320.366 192.265 320.366C192.484 320.357 192.656 320.178 192.656 319.959C192.656 319.74 192.484 319.561 192.265 319.552Z" fill="black"/>
<path d="M190.786 117.877L196.427 121.82L197.226 122.378C197.614 122.601 198.11 122.471 198.339 122.086C198.557 121.697 198.428 121.205 198.047 120.973L192.406 117.029L191.608 116.471C191.219 116.248 190.724 116.378 190.494 116.763C190.277 117.152 190.406 117.644 190.786 117.877V117.877Z" fill="black"/>
<path d="M198.695 109.642L200.875 115.619L201.189 116.479C201.318 116.905 201.758 117.155 202.19 117.048C202.621 116.925 202.874 116.479 202.759 116.047L200.579 110.07L200.265 109.209C200.136 108.784 199.695 108.534 199.263 108.641C198.832 108.764 198.579 109.209 198.695 109.642V109.642Z" fill="black"/>
<path d="M189.543 131.05L195.18 129.444L195.986 129.214C196.991 128.928 196.564 127.356 195.553 127.644L189.916 129.251L189.11 129.48C188.105 129.767 188.532 131.338 189.543 131.05Z" fill="black"/>
<path d="M288.9 302.977L293.925 304.544L307.486 308.773L327.588 315.043L352.116 322.692L378.981 331.071L406.098 339.528L431.302 347.389L452.739 354.074L468.053 358.85C470.483 359.608 472.903 360.423 475.349 361.126C475.451 361.155 475.553 361.189 475.654 361.221C476.657 361.534 477.086 359.963 476.087 359.651L471.062 358.084L457.501 353.855L437.398 347.585L412.871 339.936L386.006 331.557L358.889 323.1L333.685 315.239L312.247 308.554L296.933 303.778C294.504 303.02 292.084 302.205 289.638 301.502C289.536 301.473 289.434 301.439 289.332 301.407C288.33 301.095 287.901 302.665 288.9 302.977H288.9Z" fill="black"/>
<path d="M419.147 325.286L424.11 326.842L436.025 330.58L450.434 335.1L462.845 338.993C464.851 339.622 466.854 340.352 468.888 340.888C468.917 340.896 468.946 340.907 468.975 340.916C469.977 341.23 470.406 339.659 469.408 339.346L464.445 337.789L452.53 334.052L438.121 329.532L425.711 325.639C423.704 325.01 421.702 324.28 419.668 323.744C419.638 323.736 419.609 323.725 419.58 323.716C418.578 323.402 418.15 324.973 419.147 325.286V325.286Z" fill="black"/>
<path d="M345.742 127.66C345.742 127.66 344.928 146.923 331.363 146.923C317.256 147.737 319.155 129.831 319.155 129.831C319.155 129.831 320.24 132.544 325.123 129.559C330.821 127.66 335.162 133.9 337.332 133.629C339.254 133.501 340.631 131.739 341.549 129.916C342.516 127.966 343.041 125.828 343.086 123.653L343.301 115.723" fill="black"/>
<path d="M344.928 127.66C344.902 128.266 344.834 128.872 344.759 129.473C344.751 129.542 344.742 129.611 344.733 129.68C344.707 129.886 344.756 129.523 344.726 129.734C344.702 129.898 344.679 130.062 344.654 130.226C344.6 130.577 344.541 130.928 344.477 131.277C344.329 132.085 344.152 132.888 343.947 133.684C342.988 137.396 341.403 141.103 338.43 143.625C336.851 144.95 334.919 145.784 332.872 146.025C330.647 146.282 328.138 146.211 326.15 145.319C324.499 144.574 323.117 143.338 322.192 141.78C321.301 140.282 320.683 138.639 320.368 136.925C320.279 136.5 320.203 136.072 320.14 135.642C320.094 135.334 320.061 135.081 320.017 134.629C319.945 133.912 319.903 133.192 319.889 132.471C319.872 131.628 319.95 130.793 319.957 129.953C319.958 129.913 319.964 129.871 319.969 129.831L318.37 130.047C319.273 132.256 322.06 131.909 323.841 131.146C324.336 130.93 324.817 130.686 325.282 130.413C325.688 130.208 326.131 130.086 326.584 130.053C327.405 129.961 328.235 130.028 329.031 130.248C330.524 130.717 331.928 131.435 333.182 132.371C334.207 133.069 335.237 133.945 336.437 134.327C338.11 134.859 339.878 133.67 340.893 132.434C343.177 129.655 343.834 126.108 343.928 122.614L344.114 115.723C344.143 114.676 342.515 114.676 342.487 115.723L342.332 121.433C342.312 122.168 342.295 122.903 342.273 123.639C342.227 125.778 341.691 127.878 340.705 129.778C339.97 131.16 338.846 132.776 337.119 132.822C336.937 132.827 337.254 132.852 337.138 132.827C337.089 132.816 337.038 132.809 336.991 132.793C336.898 132.763 336.805 132.736 336.714 132.702C336.66 132.672 336.605 132.646 336.548 132.622C336.418 132.557 336.291 132.486 336.165 132.413C335.633 132.102 335.129 131.744 334.624 131.393C332.018 129.585 329.142 127.91 325.844 128.531C324.686 128.75 323.785 129.483 322.684 129.861C322.336 129.986 321.977 130.075 321.612 130.128C321.445 130.145 321.277 130.151 321.11 130.144C321.055 130.142 321 130.139 320.945 130.134C320.741 130.116 321.03 130.157 320.857 130.12C320.723 130.091 320.592 130.054 320.464 130.008C320.643 130.073 320.394 129.972 320.335 129.938C320.296 129.915 320.259 129.888 320.22 129.866C320.064 129.779 320.268 129.914 320.223 129.874C320.161 129.82 320.102 129.764 320.043 129.707C319.953 129.62 319.923 129.54 320.025 129.7C319.995 129.652 319.961 129.602 319.928 129.556C319.873 129.48 319.785 129.237 319.939 129.615C319.82 129.235 319.444 128.996 319.049 129.049C318.654 129.103 318.355 129.433 318.341 129.831C318.146 132.002 318.237 134.188 318.61 136.335C319.215 140.104 320.823 143.963 324.155 146.091C326.176 147.382 328.623 147.837 330.993 147.754C333.485 147.666 335.839 147.267 337.995 145.938C341.662 143.676 343.816 139.668 345.074 135.666C345.581 134.038 345.964 132.374 346.219 130.688C346.391 129.731 346.501 128.763 346.549 127.792C346.55 127.748 346.554 127.704 346.556 127.66C346.601 126.613 344.973 126.615 344.928 127.66L344.928 127.66Z" fill="black"/>
<path d="M326.982 134.685C327.985 134.9 329.031 134.706 329.891 134.149C330.297 133.864 330.629 133.485 330.858 133.044C331.085 132.656 330.954 132.158 330.566 131.931C330.178 131.704 329.679 131.835 329.452 132.223C329.417 132.293 329.379 132.363 329.337 132.43C329.314 132.467 329.289 132.503 329.264 132.54C329.174 132.674 329.369 132.418 329.291 132.506C329.244 132.559 329.199 132.612 329.149 132.662C329.115 132.696 328.982 132.777 328.97 132.82C328.969 132.824 329.125 132.707 329.069 132.743C329.055 132.752 329.042 132.763 329.029 132.772C329.002 132.791 328.975 132.809 328.947 132.826C328.884 132.866 328.819 132.903 328.752 132.937C328.724 132.951 328.695 132.964 328.667 132.978C328.556 133.033 328.862 132.901 328.747 132.945C328.681 132.97 328.614 132.995 328.547 133.016C328.43 133.052 328.312 133.081 328.192 133.103C328.16 133.108 328.127 133.113 328.095 133.119C327.977 133.141 328.322 133.093 328.203 133.104C328.147 133.11 328.09 133.116 328.034 133.12C327.847 133.134 327.66 133.133 327.473 133.119C327.436 133.117 327.398 133.113 327.36 133.109C327.345 133.107 327.331 133.105 327.316 133.104C327.372 133.114 327.429 133.122 327.486 133.127C327.462 133.122 327.438 133.12 327.415 133.116C327.203 133.064 326.979 133.093 326.787 133.198C326.505 133.363 326.348 133.681 326.391 134.006C326.433 134.331 326.666 134.599 326.982 134.686L326.982 134.685Z" fill="white"/>
<path d="M358.798 144.382C355.596 145.18 352.292 145.488 348.998 145.295C348.972 145.293 350.206 145.398 350.193 145.376L348.998 145.295C344.964 138.38 343.736 130.727 343.103 122.747L342.523 115.439L318.526 111.759C317.17 111.536 316.769 109.906 317.904 109.227L319.698 108.669C321.497 107.592 321.383 105.635 322.139 103.786C327.023 91.8488 334.546 89.8433 343.187 91.246C343.187 91.246 359.876 94.1739 361.925 104.421C363.158 110.585 361.848 123 360.609 131.915C360.35 133.986 360.723 136.086 361.677 137.941C362.293 139.163 362.326 140.597 361.767 141.846C361.209 143.094 360.119 144.026 358.798 144.382Z" fill="#EA2F2F"/>
<path d="M358.582 143.598C355.456 144.409 352.219 144.707 348.998 144.481C347.948 144.404 347.966 146.014 348.998 146.109C349.462 146.21 349.94 146.227 350.41 146.161C350.791 146.042 351.032 145.666 350.978 145.27C350.924 144.874 350.593 144.575 350.193 144.562L348.998 144.481L349.701 144.884C346.912 140.075 345.429 134.701 344.62 129.232C344.113 125.805 343.885 122.345 343.611 118.894L343.336 115.439C343.331 115.075 343.089 114.757 342.739 114.655L336.488 113.696L324.904 111.92C322.839 111.603 320.727 111.385 318.68 110.962C318.292 110.882 318.002 110.582 318.057 110.287C318.071 110.212 318.25 109.922 318.127 110.01C318.264 109.946 318.408 109.901 318.557 109.876C318.976 109.746 319.399 109.626 319.815 109.485C320.379 109.262 320.869 108.884 321.229 108.395C322.144 107.244 322.301 105.769 322.767 104.42C323.325 102.897 324.029 101.431 324.869 100.044C326.109 97.8029 327.809 95.8496 329.857 94.3121C331.616 93.0724 333.633 92.2476 335.756 91.8998C338.685 91.4641 341.672 91.6247 344.537 92.3719C347.926 93.1477 351.18 94.4224 354.194 96.1544C355.992 97.1766 357.598 98.503 358.941 100.075C360.223 101.654 361.041 103.558 361.302 105.575C361.624 108.21 361.711 110.867 361.562 113.517C361.455 116.772 361.189 120.021 360.854 123.259C360.684 124.893 360.497 126.525 360.292 128.154C360.098 129.701 359.776 131.275 359.712 132.833C359.669 134.543 360.013 136.24 360.719 137.798C361.026 138.377 361.233 139.003 361.33 139.651C361.38 140.25 361.292 140.852 361.071 141.411C360.63 142.49 359.708 143.299 358.582 143.598C357.574 143.879 358.002 145.45 359.014 145.167C360.398 144.777 361.57 143.853 362.272 142.598C362.974 141.343 363.147 139.861 362.755 138.478C362.541 137.747 362.143 137.085 361.892 136.366C361.606 135.57 361.426 134.74 361.357 133.897C361.239 132.244 361.612 130.565 361.821 128.93C362.655 122.423 363.404 115.807 363.209 109.236C363.137 106.803 362.978 104.27 362.011 102.007C361.108 100.011 359.75 98.255 358.044 96.8807C354.88 94.2352 350.981 92.5417 347.056 91.3683C344.423 90.5442 341.687 90.0985 338.929 90.0448C336.622 89.9899 334.327 90.3866 332.173 91.2125C329.886 92.1444 327.844 93.5881 326.202 95.4326C324.146 97.8214 322.518 100.547 321.388 103.489C321.124 104.193 320.903 104.913 320.724 105.643C320.59 106.3 320.311 106.919 319.906 107.453C319.664 107.775 319.309 107.992 318.913 108.061C318.514 108.185 318.107 108.293 317.713 108.434C316.375 108.913 316.089 110.659 316.913 111.703C317.308 112.184 317.873 112.495 318.491 112.572C319.451 112.725 320.414 112.867 321.376 113.015L332.826 114.77L341.824 116.15L342.306 116.224L341.709 115.439C341.901 117.857 342.093 120.276 342.285 122.694C342.745 128.479 343.508 134.314 345.527 139.786C346.114 141.389 346.807 142.95 347.602 144.46C347.809 144.851 348.012 145.255 348.25 145.628C348.422 145.928 348.741 146.113 349.086 146.115C349.455 146.147 349.824 146.165 350.193 146.19L349.977 144.591C350.201 144.521 350.146 144.566 349.951 144.555C349.815 144.547 349.679 144.536 349.543 144.526C349.361 144.511 349.179 144.498 348.998 144.481V146.109C352.366 146.338 355.748 146.02 359.015 145.167C360.028 144.904 359.598 143.334 358.582 143.598Z" fill="black"/>
<path d="M333.818 100.908C331.769 97.98 327.67 99.1511 327.67 99.1511L325.62 99.7369V104.421C325.62 104.421 330.597 103.72 333.233 106.178C335.575 106.701 335.172 102.842 333.818 100.908Z" fill="white"/>
<path d="M334.52 100.497C332.831 98.1446 329.806 97.694 327.16 98.4499L325.403 98.9519C325.054 99.0543 324.811 99.3725 324.806 99.7368V104.421C324.811 104.673 324.931 104.909 325.132 105.062C325.332 105.215 325.591 105.268 325.836 105.206C325.435 105.262 325.661 105.228 325.756 105.219C325.884 105.206 326.011 105.193 326.138 105.183C326.543 105.153 326.948 105.14 327.353 105.143C328.511 105.127 329.664 105.305 330.764 105.668C331.327 105.854 331.858 106.128 332.336 106.479C332.597 106.742 332.927 106.925 333.288 107.007C333.584 107.057 333.888 107.045 334.179 106.972C335.34 106.648 335.735 105.429 335.726 104.339C335.703 102.969 335.285 101.635 334.52 100.497C334.286 100.118 333.797 99.9897 333.407 100.205C333.022 100.434 332.892 100.93 333.115 101.319C333.708 102.187 334.048 103.204 334.096 104.255C334.1 104.379 334.098 104.503 334.09 104.627C334.087 104.68 334.083 104.732 334.077 104.785C334.066 104.882 334.102 104.681 334.067 104.832C334.043 104.937 334.016 105.039 333.985 105.142C333.95 105.254 334.074 104.987 333.978 105.163C333.957 105.199 333.935 105.236 333.916 105.274C333.832 105.445 333.98 105.201 333.917 105.283C333.884 105.321 333.849 105.356 333.811 105.389C333.941 105.267 333.709 105.444 333.836 105.375C333.797 105.392 333.756 105.404 333.714 105.41C333.625 105.427 333.857 105.414 333.698 105.411C333.649 105.41 333.6 105.412 333.552 105.41C333.319 105.4 333.697 105.444 333.448 105.393L333.808 105.602C331.622 103.607 328.236 103.243 325.403 103.636L326.434 104.421V99.7369L325.836 100.522C326.742 100.224 327.664 99.9804 328.599 99.7928C328.73 99.7718 328.437 99.8066 328.678 99.7834C328.766 99.775 328.854 99.7653 328.943 99.7583C329.139 99.743 329.335 99.7349 329.532 99.7341C329.939 99.7258 330.346 99.7641 330.744 99.8482C331.693 100.019 332.541 100.545 333.115 101.319C333.35 101.697 333.839 101.825 334.229 101.611C334.614 101.382 334.744 100.886 334.52 100.497Z" fill="black"/>
<circle cx="355.844" cy="122.857" r="6.70267" fill="#EA2F2F"/>
<path d="M361.733 122.857C361.732 125.339 360.174 127.554 357.838 128.394C355.502 129.234 352.891 128.519 351.308 126.606C349.726 124.694 349.513 121.994 350.776 119.857C352.039 117.72 354.507 116.605 356.945 117.069C359.713 117.617 361.714 120.036 361.733 122.857C361.744 123.904 363.372 123.906 363.361 122.857C363.362 119.681 361.367 116.848 358.377 115.777C355.388 114.707 352.048 115.631 350.033 118.086C348.018 120.54 347.763 123.996 349.396 126.72C351.028 129.444 354.196 130.848 357.311 130.228C360.806 129.493 363.322 126.428 363.361 122.857C363.372 121.809 361.745 121.808 361.733 122.857Z" fill="black"/>
<ellipse cx="357.887" cy="123.527" rx="3.86177" ry="3.86177" fill="#EA2F2F"/>
<path d="M360.935 123.527C360.933 124.807 360.131 125.95 358.928 126.387C357.725 126.824 356.377 126.463 355.554 125.482C354.731 124.502 354.609 123.112 355.247 122.003C355.886 120.894 357.149 120.302 358.41 120.521C359.865 120.786 360.926 122.049 360.935 123.527C360.949 124.574 362.577 124.577 362.562 123.527C362.541 121.57 361.32 119.826 359.488 119.137C357.631 118.461 355.55 119.026 354.289 120.547C353.028 122.068 352.859 124.217 353.867 125.916C354.943 127.724 357.095 128.591 359.124 128.033C361.154 127.476 362.561 125.632 362.562 123.527C362.577 122.48 360.949 122.479 360.935 123.527Z" fill="black"/>
<path d="M340.259 99.8226L364.653 107.285C365.824 107.731 366.526 108.932 366.339 110.171C366.165 111.62 364.963 112.638 363.655 112.444L338.209 107.93" fill="white"/>
<path d="M340.043 100.608L349.188 103.405L362.594 107.507C363.746 107.859 365.248 108.016 365.515 109.445C365.545 109.636 365.553 109.83 365.54 110.022C365.522 110.472 365.572 109.923 365.52 110.168C365.499 110.284 365.469 110.398 365.433 110.509C365.317 110.854 365.1 111.155 364.81 111.374C364.514 111.588 364.149 111.684 363.786 111.645C363.848 111.65 363.903 111.662 363.821 111.65C363.452 111.596 363.085 111.519 362.718 111.454L349.665 109.139C345.982 108.486 342.302 107.813 338.615 107.179C338.552 107.168 338.489 107.157 338.426 107.146C337.994 107.039 337.554 107.289 337.424 107.714C337.309 108.147 337.562 108.593 337.993 108.715L347.814 110.457L361.829 112.943C362.309 113.028 362.788 113.116 363.268 113.198C364.371 113.434 365.515 113.064 366.272 112.229C366.94 111.456 367.255 110.439 367.14 109.424C367.024 108.409 366.49 107.489 365.665 106.886C365.243 106.631 364.783 106.443 364.303 106.327L351.999 102.563L340.671 99.0979L340.475 99.038C339.471 98.7309 339.042 100.302 340.043 100.608V100.608Z" fill="black"/>
<ellipse cx="338.656" cy="103.258" rx="6.28714" ry="6.28714" fill="#458DC9"/>
<path d="M344.13 103.258C344.128 105.564 342.68 107.622 340.51 108.403C338.34 109.184 335.913 108.521 334.442 106.744C332.971 104.968 332.772 102.459 333.944 100.473C335.116 98.4863 337.408 97.4479 339.674 97.8765C342.248 98.3847 344.111 100.634 344.13 103.258C344.141 104.305 345.769 104.307 345.757 103.258C345.758 100.258 343.874 97.5804 341.05 96.5688C338.225 95.5573 335.07 96.4297 333.166 98.7484C331.262 101.067 331.021 104.332 332.563 106.906C334.105 109.479 337.097 110.806 340.04 110.221C343.342 109.527 345.719 106.632 345.757 103.258C345.769 102.21 344.141 102.209 344.13 103.258Z" fill="black"/>
<path d="M344.13 103.258C344.128 105.564 342.68 107.622 340.51 108.403C338.34 109.184 335.913 108.521 334.442 106.744C332.971 104.968 332.772 102.459 333.944 100.473C335.116 98.4863 337.408 97.4479 339.674 97.8765C342.248 98.3847 344.111 100.634 344.13 103.258C344.141 104.305 345.769 104.307 345.757 103.258C345.758 100.258 343.874 97.5804 341.05 96.5688C338.225 95.5573 335.07 96.4297 333.166 98.7484C331.262 101.067 331.021 104.332 332.563 106.906C334.105 109.479 337.097 110.806 340.04 110.221C343.342 109.527 345.719 106.632 345.757 103.258C345.769 102.21 344.141 102.209 344.13 103.258Z" fill="black"/>
<ellipse cx="321.806" cy="99.86" rx="6.14078" ry="6.14077" fill="#458DC9"/>
<circle cx="320.05" cy="98.9817" r="1.618" fill="white"/>
<ellipse cx="336.445" cy="102.495" rx="1.618" ry="1.618" fill="white"/>
<path d="M327.133 99.86C327.131 102.108 325.719 104.113 323.603 104.871C321.487 105.629 319.123 104.977 317.694 103.241C316.266 101.506 316.081 99.0603 317.231 97.1295C318.382 95.1986 320.621 94.1981 322.827 94.6288C325.319 95.1346 327.116 97.3173 327.133 99.86C327.145 100.907 328.773 100.91 328.761 99.86C328.762 96.9189 326.912 94.2952 324.142 93.3069C321.372 92.3186 318.28 93.1795 316.419 95.457C314.558 97.7344 314.331 100.936 315.851 103.454C317.372 105.971 320.311 107.261 323.193 106.674C326.412 105.981 328.723 103.152 328.761 99.86C328.773 98.8122 327.145 98.8115 327.133 99.86Z" fill="black"/>
<path d="M360.78 135.449C360.78 135.449 359.29 136.335 355.776 136.628L360.78 135.449Z" fill="white"/>
<path d="M360.369 134.747C360.278 134.799 360.183 134.846 360.087 134.887C359.961 134.944 359.941 134.944 360.099 134.884C360.033 134.909 359.969 134.937 359.903 134.962C359.73 135.028 359.556 135.088 359.379 135.144C358.886 135.299 358.384 135.426 357.876 135.525C357.183 135.666 356.482 135.762 355.777 135.814C355.486 135.814 355.217 135.969 355.072 136.221C354.927 136.473 354.927 136.783 355.072 137.035C355.217 137.287 355.486 137.442 355.777 137.442C357.145 137.349 358.498 137.105 359.812 136.714C360.291 136.578 360.754 136.39 361.191 136.152C361.579 135.925 361.71 135.427 361.483 135.039C361.256 134.651 360.757 134.52 360.369 134.747H360.369Z" fill="black"/>
<path d="M336.295 114.484L347.37 116.266L336.295 114.484Z" fill="#EA2F2F"/>
<path d="M336.079 115.269L345.764 116.827L347.154 117.051C347.585 117.156 348.025 116.907 348.155 116.482C348.271 116.049 348.018 115.603 347.587 115.481L337.902 113.923L336.512 113.699C336.08 113.594 335.641 113.843 335.51 114.268C335.395 114.701 335.648 115.147 336.079 115.269H336.079Z" fill="black"/>
<path d="M332.771 120.247C332.783 120.241 332.795 120.236 332.807 120.23C332.955 120.161 332.602 120.308 332.73 120.262C332.859 120.216 332.985 120.165 333.116 120.124C333.309 120.063 333.505 120.012 333.703 119.971C333.816 119.947 333.93 119.928 334.044 119.908C334.263 119.87 333.869 119.922 334.098 119.901C334.169 119.894 334.24 119.886 334.312 119.881C334.596 119.858 334.882 119.855 335.167 119.873C335.474 119.887 335.779 119.937 336.075 120.021C336.82 120.225 337.516 120.58 338.12 121.063C338.508 121.287 339.005 121.157 339.233 120.771C339.448 120.382 339.32 119.892 338.941 119.658C336.939 118.117 334.252 117.804 331.949 118.841C331.565 119.071 331.435 119.566 331.657 119.955C331.89 120.335 332.382 120.464 332.771 120.247L332.771 120.247Z" fill="black"/>
<path d="M321.638 118.628C323.667 118.005 326.801 118.504 327.119 121.042C327.266 122.217 326.608 123.426 325.966 124.359C325.502 125.015 324.963 125.615 324.361 126.147C324.034 126.444 323.678 126.662 323.541 127.102C323.457 127.372 323.42 127.654 323.433 127.936C323.526 129.564 325.359 129.835 326.649 129.855C327.697 129.871 327.697 128.243 326.649 128.227C326.118 128.257 325.587 128.162 325.1 127.948C325.081 127.939 325.067 127.923 325.059 127.903C325.055 127.743 325.084 127.584 325.143 127.435L324.934 127.794C326.752 126.297 328.604 124.088 328.757 121.622C328.811 120.412 328.38 119.231 327.558 118.341C326.658 117.351 325.438 116.975 324.143 116.845C323.159 116.726 322.161 116.798 321.205 117.059C320.207 117.366 320.633 118.937 321.638 118.628L321.638 118.628Z" fill="black"/>
<ellipse cx="323.515" cy="122.181" rx="1.11912" ry="1.11912" fill="black"/>
<path d="M324.232 122.22C324.224 122.271 324.214 122.322 324.201 122.371C324.193 122.401 324.182 122.429 324.173 122.458C324.149 122.533 324.179 122.451 324.18 122.444C324.165 122.492 324.141 122.536 324.109 122.574C324.095 122.6 324.078 122.624 324.059 122.647C324.104 122.601 324.079 122.62 324.047 122.654C324.025 122.678 323.973 122.745 323.942 122.754C324.008 122.735 323.979 122.729 323.943 122.752C323.922 122.765 323.902 122.779 323.881 122.792C323.86 122.804 323.838 122.815 323.817 122.827C323.794 122.84 323.743 122.88 323.821 122.828C323.768 122.854 323.711 122.872 323.653 122.881C323.634 122.887 323.614 122.891 323.594 122.892L323.643 122.886C323.623 122.888 323.603 122.89 323.583 122.891C323.532 122.894 323.481 122.891 323.43 122.89C323.403 122.889 323.363 122.9 323.445 122.894C323.414 122.892 323.383 122.885 323.354 122.875C323.334 122.87 323.314 122.865 323.295 122.859C323.283 122.855 323.174 122.811 323.23 122.838C323.29 122.866 323.202 122.822 323.198 122.82C323.176 122.809 323.155 122.796 323.134 122.783C323.113 122.77 323.093 122.756 323.072 122.743C322.997 122.693 323.106 122.787 323.074 122.743C323.044 122.711 323.013 122.681 322.979 122.652C322.964 122.635 322.893 122.576 322.969 122.645C322.95 122.623 322.933 122.599 322.919 122.573C322.903 122.547 322.848 122.478 322.85 122.445L322.867 122.488C322.86 122.47 322.853 122.452 322.847 122.433C322.841 122.414 322.835 122.396 322.829 122.377C322.821 122.348 322.816 122.319 322.809 122.29C322.802 122.263 322.78 122.23 322.809 122.31C322.797 122.25 322.795 122.188 322.803 122.127C322.804 122.122 322.813 122.021 322.805 122.088C322.797 122.156 322.812 122.056 322.813 122.05C322.824 122 322.84 121.953 322.856 121.904C322.88 121.829 322.849 121.911 322.849 121.918C322.858 121.889 322.872 121.863 322.89 121.839C322.899 121.821 322.909 121.804 322.92 121.788C322.931 121.771 322.941 121.755 322.953 121.739C322.979 121.703 322.976 121.707 322.943 121.752C322.95 121.718 323.019 121.669 323.044 121.646C323.053 121.637 323.078 121.61 323.087 121.608L323.051 121.635C323.066 121.624 323.082 121.612 323.098 121.602C323.135 121.577 323.174 121.557 323.212 121.535C323.235 121.522 323.286 121.482 323.208 121.534C323.234 121.521 323.262 121.511 323.291 121.504C323.321 121.495 323.404 121.458 323.435 121.47L323.386 121.476C323.406 121.474 323.426 121.472 323.446 121.471C323.466 121.47 323.487 121.469 323.507 121.469C323.538 121.469 323.568 121.471 323.599 121.472C323.678 121.475 323.594 121.468 323.584 121.469C323.646 121.472 323.707 121.487 323.763 121.512C323.769 121.514 323.858 121.553 323.799 121.525C323.742 121.498 323.847 121.551 323.857 121.556C323.874 121.566 323.891 121.576 323.908 121.587C323.924 121.597 323.941 121.608 323.957 121.619C323.993 121.646 323.988 121.642 323.944 121.61C323.983 121.618 324.032 121.694 324.059 121.721C324.077 121.739 324.129 121.783 324.06 121.717C324.079 121.739 324.096 121.764 324.11 121.789C324.125 121.814 324.14 121.839 324.154 121.865C324.165 121.887 324.217 121.958 324.162 121.874C324.188 121.927 324.206 121.984 324.214 122.043C324.22 122.062 324.224 122.082 324.226 122.101C324.219 122.043 324.218 122.036 324.223 122.083C324.224 122.103 324.225 122.123 324.226 122.143C324.228 122.205 324.225 122.267 324.217 122.328C324.217 122.552 324.399 122.734 324.624 122.735C324.846 122.729 325.025 122.55 325.031 122.328C325.091 121.713 324.774 121.122 324.228 120.833C323.65 120.535 322.947 120.63 322.468 121.071C321.984 121.526 321.85 122.242 322.137 122.841C322.425 123.441 323.067 123.785 323.725 123.692C324.383 123.599 324.906 123.091 325.016 122.436C325.07 122.22 324.945 122 324.732 121.935C324.516 121.878 324.293 122.005 324.232 122.22Z" fill="black"/>
<path d="M332.588 123.48C332.723 123.413 332.443 123.537 332.475 123.526C332.538 123.503 332.599 123.479 332.662 123.459C332.764 123.427 332.867 123.401 332.971 123.38C333.015 123.372 333.224 123.34 333.054 123.363C332.888 123.385 333.03 123.367 333.067 123.363C333.103 123.359 333.139 123.357 333.175 123.355C333.328 123.345 333.481 123.347 333.634 123.36C333.702 123.366 333.83 123.409 333.59 123.352C333.633 123.362 333.679 123.366 333.723 123.374C333.807 123.39 333.891 123.41 333.974 123.434C334.062 123.459 334.147 123.49 334.233 123.52C334.394 123.575 334.087 123.449 334.231 123.518C334.28 123.542 334.329 123.565 334.377 123.59C334.479 123.643 334.578 123.701 334.673 123.764C334.715 123.791 334.757 123.82 334.797 123.849C334.823 123.867 334.847 123.885 334.872 123.904C334.79 123.84 334.785 123.838 334.857 123.895C335.013 124.042 335.218 124.127 335.432 124.133C335.761 124.133 336.058 123.935 336.184 123.631C336.31 123.327 336.241 122.977 336.008 122.744C335.237 122.066 334.239 121.703 333.213 121.725C332.712 121.741 332.219 121.86 331.766 122.074C331.38 122.303 331.25 122.799 331.474 123.188C331.708 123.567 332.198 123.695 332.587 123.48H332.588Z" fill="black"/>
</svg>
