<svg width="690" height="420" viewBox="0 0 690 420" fill="none" xmlns="http://www.w3.org/2000/svg">
<rect width="690" height="420" rx="10" fill="#EA9B62"/>
<path d="M492.667 80.128H459.421L460.529 71.2622H490.332C491.204 71.2622 492.034 71.6367 492.611 72.2904C493.188 72.9441 493.457 73.8141 493.349 74.6794L492.667 80.128Z" fill="white"/>
<path d="M492.667 79.4535H459.42L460.095 80.1279L461.064 72.3773L461.203 71.2621L460.529 71.9365H485.214C486.91 71.9365 488.61 71.9099 490.306 71.9365C491.128 71.9333 491.893 72.3514 492.335 73.0442C492.675 73.673 492.777 74.4037 492.621 75.1015L492.042 79.733L491.993 80.1279C491.995 80.4993 492.296 80.7999 492.667 80.8022C493.036 80.7938 493.333 80.4968 493.341 80.1279L493.861 75.9752C493.923 75.4766 494.012 74.9732 494.041 74.4711C494.095 73.1632 493.462 71.9221 492.371 71.1988C491.531 70.6389 490.609 70.5878 489.65 70.5878H466.326C464.427 70.5878 462.513 70.5161 460.616 70.5878C460.587 70.5888 460.558 70.5878 460.529 70.5878C460.161 70.5981 459.865 70.8941 459.854 71.2621L458.885 79.0125L458.746 80.1277C458.749 80.4989 459.049 80.7991 459.42 80.8021H492.667C493.029 80.7881 493.316 80.4903 493.316 80.1278C493.316 79.7652 493.029 79.4675 492.667 79.4535Z" fill="black"/>
<path d="M480.033 87.4421L536.519 361.301L480.033 87.4421Z" fill="white"/>
<path d="M479.383 87.6213L480.902 94.9833L484.998 114.844L491.095 144.403L498.51 180.353L506.631 219.725L514.828 259.465L522.47 296.518L528.929 327.831L533.574 350.35C534.307 353.904 534.964 357.484 535.775 361.021C535.81 361.173 535.838 361.327 535.87 361.48C536.045 362.33 537.345 361.97 537.17 361.122L535.652 353.76L531.555 333.899L525.458 304.34L518.043 268.39L509.922 229.018L501.726 189.278L494.083 152.225L487.625 120.912L482.98 98.3929C482.247 94.839 481.59 91.2589 480.779 87.7218C480.744 87.5696 480.715 87.4156 480.684 87.2627C480.509 86.4132 479.208 86.7728 479.383 87.6213H479.383Z" fill="black"/>
<path d="M400.274 358.558L402.254 350.797L407.652 329.643L415.654 298.286L425.446 259.915L436.213 217.723L447.141 174.898L457.416 134.633L466.224 100.117L472.751 74.5407L476.177 61.1165C476.279 60.7155 476.972 57.8872 477.665 59.9847C477.927 60.7808 477.733 62.019 477.761 62.8462L478.335 79.8364L479.317 108.924L480.589 146.6L482.028 189.205L483.525 233.525L484.956 275.913L486.204 312.858L487.149 340.852L487.673 356.382L487.741 358.379C487.77 359.244 489.119 359.248 489.089 358.379L488.807 350.022L488.041 327.339L486.912 293.911L485.542 253.32L484.05 209.148L482.559 164.976L481.188 124.385L480.059 90.9577L479.293 68.2747C479.2 65.5201 479.319 62.6597 479.011 59.9178C478.755 57.649 475.904 57.4356 475.186 59.5421C475.088 59.8309 475.033 60.1429 474.957 60.4381L473.762 65.121L468.785 84.6266L461.05 114.94L451.387 152.805L440.628 194.967L429.603 238.17L419.143 279.16L410.078 314.682L403.24 341.479L399.458 356.297L398.973 358.199C398.758 359.041 400.059 359.4 400.274 358.558H400.274Z" fill="black"/>
<path d="M510.885 241.041H413.969C411.566 241.041 409.279 240.005 407.694 238.198C406.109 236.392 405.379 233.989 405.692 231.606L407.335 219.098H519.93L519.222 233.114C518.997 237.555 515.331 241.041 510.885 241.041Z" fill="white"/>
<path d="M510.884 240.367H415.069C414.704 240.367 414.339 240.369 413.975 240.367C410.441 240.342 407.371 237.931 406.508 234.504C406.023 232.527 406.527 230.38 406.788 228.397L407.81 220.608L408.009 219.098L407.334 219.773H515.356C516.809 219.773 518.292 219.859 519.743 219.773C519.805 219.769 519.868 219.773 519.929 219.773L519.255 219.098L518.847 227.182L518.603 232.001C518.534 233.38 518.434 234.715 517.818 235.989C516.527 238.648 513.84 240.345 510.884 240.367C510.017 240.375 510.015 241.724 510.884 241.715C513.674 241.699 516.302 240.407 518.018 238.208C519.204 236.628 519.867 234.717 519.915 232.742L520.426 222.615L520.604 219.098C520.599 218.728 520.3 218.428 519.929 218.424H411.907C410.446 218.424 408.981 218.396 407.52 218.424C407.458 218.425 407.396 218.424 407.334 218.424C406.966 218.435 406.67 218.73 406.66 219.098L405.058 231.299C404.59 234.442 405.789 237.603 408.223 239.646C409.907 241.011 412.016 241.743 414.184 241.715C415.961 241.717 417.738 241.717 419.514 241.715H510.884C511.247 241.702 511.534 241.404 511.534 241.041C511.534 240.678 511.247 240.38 510.884 240.367Z" fill="black"/>
<path d="M511.95 226.635H415.535L425.509 77.4683H521.924L511.95 226.635Z" fill="white"/>
<path d="M511.95 225.96H417.009C416.572 225.93 416.133 225.93 415.695 225.96C415.642 225.964 415.588 225.964 415.535 225.96L416.209 226.634L416.477 222.638L417.204 211.763L418.279 195.681L419.586 176.134L421.017 154.729L422.467 133.048L423.819 112.835L424.96 95.7592L425.779 83.5246C425.907 81.6071 426.172 79.6439 426.167 77.7208C426.166 77.6372 426.178 77.5521 426.183 77.4685L425.509 78.1429H520.45C520.887 78.173 521.326 78.173 521.764 78.1429C521.817 78.1392 521.871 78.1392 521.924 78.1429L521.25 77.4683L520.982 81.4647L520.255 92.3396L519.18 108.422L517.873 127.969L516.442 149.374L514.992 171.054L513.64 191.268L512.498 208.343L511.68 220.578C511.551 222.51 511.367 224.447 511.292 226.382C511.289 226.466 511.281 226.55 511.276 226.634C511.218 227.501 512.567 227.497 512.624 226.634L512.891 222.638L513.619 211.763L514.694 195.681L516.001 176.133L517.432 154.729L518.882 133.048L520.234 112.835L521.375 95.759L522.193 83.5243C522.322 81.5926 522.507 79.6554 522.581 77.7206C522.585 77.6364 522.593 77.5523 522.598 77.4683C522.595 77.0974 522.295 76.7977 521.924 76.7939H437.363C433.473 76.7939 429.558 76.6632 425.669 76.7939C425.616 76.7957 425.562 76.7939 425.509 76.7939C425.14 76.8017 424.842 77.0991 424.835 77.4683L424.567 81.4647L423.84 92.3396L422.765 108.422L421.458 127.969L420.026 149.374L418.577 171.054L417.225 191.268L416.083 208.344L415.265 220.578C415.136 222.51 414.951 224.447 414.877 226.382C414.874 226.466 414.866 226.55 414.86 226.634C414.864 227.005 415.164 227.305 415.535 227.309H500.095C503.985 227.309 507.901 227.439 511.79 227.309C511.843 227.307 511.896 227.309 511.95 227.309C512.312 227.295 512.598 226.997 512.599 226.634C512.599 226.272 512.312 225.974 511.95 225.96Z" fill="black"/>
<path d="M411.987 227.309H510.662C511.993 227.309 513.326 227.334 514.657 227.309C514.715 227.308 514.773 227.309 514.831 227.309C515.195 227.296 515.482 226.998 515.482 226.634C515.482 226.271 515.195 225.973 514.831 225.96H416.156C414.826 225.96 413.492 225.935 412.161 225.96C412.103 225.961 412.045 225.96 411.987 225.96C411.624 225.973 411.336 226.271 411.336 226.634C411.336 226.998 411.624 227.296 411.987 227.309H411.987Z" fill="black"/>
<path d="M485.561 74.5342L485.181 77.5781C484.999 79.0347 483.76 80.1279 482.292 80.128H454.913C454.078 80.128 453.283 79.7694 452.731 79.1435C452.178 78.5176 451.921 77.6845 452.024 76.856L452.405 73.812C452.587 72.3554 453.825 71.2623 455.293 71.2622H486.616" fill="white"/>
<path d="M484.888 74.5341L484.679 76.2047C484.65 76.8377 484.544 77.4648 484.364 78.0722C483.924 79.1507 482.905 79.4535 481.857 79.4535H457.084C456.418 79.4535 455.752 79.4555 455.086 79.4535C454.405 79.4868 453.744 79.2153 453.283 78.7124C452.822 78.2096 452.608 77.5277 452.7 76.8517C452.766 76.23 452.855 75.6098 452.933 74.9894C453.019 74.3019 453.015 73.675 453.326 73.1098C453.842 72.1723 454.754 71.9365 455.728 71.9365H486.617C486.98 71.9239 487.268 71.6257 487.268 71.2621C487.268 70.8985 486.98 70.6003 486.617 70.5878H456.059C455.348 70.5348 454.634 70.6246 453.958 70.8517C452.786 71.3268 451.949 72.3828 451.755 73.6327C451.659 74.2796 451.591 74.932 451.51 75.581C451.37 76.2866 451.323 77.0074 451.37 77.7251C451.546 78.9458 452.336 79.9906 453.463 80.4911C454.192 80.7571 454.97 80.8632 455.743 80.8024H481.246C481.841 80.834 482.437 80.8082 483.028 80.7253C484.266 80.459 485.275 79.5641 485.688 78.3662C485.872 77.6756 485.984 76.9679 486.022 76.2542L486.237 74.5343C486.234 74.1628 485.934 73.8622 485.562 73.8599C485.193 73.8683 484.896 74.1654 484.888 74.5343L484.888 74.5341Z" fill="black"/>
<path d="M406.655 97.6579C406.803 97.1084 406.99 96.5673 407.19 96.0353C407.363 95.5589 407.565 95.0934 407.794 94.6413C408.036 94.1435 408.322 93.6676 408.646 93.2191C408.65 93.2136 408.712 93.1335 408.668 93.1906C408.62 93.2523 408.73 93.115 408.727 93.118C408.771 93.065 408.816 93.013 408.862 92.9619C408.956 92.8562 409.056 92.7555 409.161 92.6602C409.208 92.6177 409.257 92.5772 409.306 92.5369C409.365 92.4881 409.28 92.5576 409.275 92.5614C409.303 92.5417 409.331 92.5202 409.36 92.5014C409.417 92.4647 409.474 92.4277 409.534 92.3947C409.572 92.3734 409.758 92.2872 409.595 92.3556C409.947 92.2465 410.153 91.8835 410.066 91.526C409.966 91.1683 409.596 90.9583 409.237 91.055C408.117 91.5264 407.386 92.5471 406.824 93.5864C406.307 94.565 405.881 95.589 405.551 96.6455C405.482 96.8621 405.414 97.0797 405.354 97.2995C405.27 97.6532 405.481 98.01 405.832 98.1067C406.182 98.2033 406.546 98.0049 406.655 97.6581V97.6579Z" fill="black"/>
<path d="M483.469 141.682C464.587 136.063 492.011 88.1827 461.44 91.7793C453.573 92.7048 448.639 98.4682 445.648 106.518C445.65 106.54 447.998 133.789 462.339 151.124C479.784 172.209 465.904 188.892 452.545 189.706C454.648 191.912 457.034 193.829 459.641 195.407C484.593 207.546 502.351 147.302 483.469 141.682Z" fill="#458DC9"/>
<path d="M445.649 106.518V106.517C435.927 114.062 429.071 153.147 437.163 178.548C439.794 186.807 446.109 190.098 452.546 189.706C444.583 181.289 444.581 172.029 444.581 172.029C444.581 172.029 437.018 129.75 445.649 106.518Z" fill="#389B48"/>
<path d="M462.34 151.124C447.998 133.789 445.651 106.54 445.649 106.518C437.019 129.75 444.581 172.029 444.581 172.029C444.581 172.029 444.583 181.289 452.546 189.706C465.904 188.892 479.785 172.21 462.34 151.124Z" fill="#FFC41F"/>
<path d="M488.19 203.949C488.19 203.949 483.919 185.291 494.26 184.617C504.6 183.943 495.159 216.537 488.19 203.949Z" fill="#FC7272"/>
<path d="M471.562 138.673C471.555 134.748 473.37 129.656 476.164 125.193C476.484 109.64 481.71 89.3946 461.44 91.7793C453.573 92.7048 448.639 98.4682 445.648 106.518C445.65 106.54 447.998 133.789 462.339 151.124C479.784 172.209 465.904 188.892 452.545 189.706C454.648 191.912 457.034 193.829 459.641 195.407C478.353 204.51 493.02 172.906 491.221 154.16C490.072 154.528 488.872 154.716 487.665 154.715C483.402 154.723 479.311 153.038 476.291 150.029C473.271 147.02 471.57 142.935 471.562 138.673Z" fill="#458DC9"/>
<path d="M495.841 138.74C486.607 129.541 498.604 114.907 489.727 114.924C484.775 114.933 479.691 119.561 476.165 125.193C476.003 133.097 477.107 139.789 483.47 141.682C488.192 143.088 490.622 147.909 491.222 154.16C497.889 152.015 501.236 144.116 495.841 138.74Z" fill="#FFC41F"/>
<path d="M483.469 141.683C477.107 139.789 476.002 133.097 476.164 125.193C473.371 129.656 471.555 134.748 471.563 138.673C471.57 142.936 473.271 147.02 476.291 150.029C479.311 153.038 483.402 154.723 487.665 154.715C488.872 154.716 490.072 154.528 491.221 154.16C490.622 147.909 488.191 143.088 483.469 141.683Z" fill="#D34AA2"/>
<path d="M387.244 73.3471C386.477 73.0546 385.619 73.4368 385.324 74.2018C385.061 74.9848 385.46 75.8356 386.23 76.1345L426.279 94.6394C426.301 94.6494 426.323 94.6588 426.345 94.6688L429.366 86.3605L387.244 73.3471Z" fill="#A8542A"/>
<path d="M387.422 72.6966C385.668 72.1644 383.984 73.8548 384.765 75.5916C385.026 76.1319 385.478 76.5565 386.033 76.7833C386.69 77.0866 387.347 77.3901 388.003 77.6937L397.094 81.8941L409.328 87.5467L420.402 92.6633C422.224 93.5052 424.04 94.3612 425.869 95.1893C425.914 95.2098 425.959 95.2308 426.004 95.2511C426.186 95.3511 426.403 95.3637 426.596 95.2855C426.788 95.2073 426.935 95.0466 426.995 94.8481L429.63 87.5994L430.016 86.5397C430.11 86.1812 429.901 85.8133 429.545 85.7102L425.341 84.4114L415.297 81.3084L403.104 77.5412L392.606 74.298C390.911 73.7742 389.216 73.1569 387.496 72.7194C387.471 72.713 387.447 72.7041 387.422 72.6966C386.591 72.4398 386.236 73.7413 387.064 73.9971L391.268 75.2959L401.312 78.399L413.505 82.1661L424.003 85.4093L427.465 86.4789C428.004 86.6804 428.554 86.8504 429.112 86.988C429.137 86.9941 429.162 87.0017 429.186 87.0107L428.715 86.1812L426.08 93.4299L425.694 94.4895L426.685 94.0863C425.256 93.4459 423.841 92.7729 422.419 92.1161L412.329 87.4538L400.291 81.8921L390.396 77.3198L387.481 75.9731C387.003 75.7524 386.153 75.4947 385.962 74.9735C385.695 74.2446 386.434 73.8061 387.064 73.9971C387.896 74.2496 388.252 72.9483 387.422 72.6966Z" fill="black"/>
<path d="M436.795 97.3228L438.074 97.4062L440.05 91.9737L438.446 90.8165C435.802 88.9074 432.864 87.4423 429.748 86.4787L429.365 86.3606L426.345 94.6689C429.637 96.1838 433.179 97.0832 436.795 97.3228Z" fill="white"/>
<path d="M436.795 97.997L438.074 98.0803C438.376 98.0761 438.64 97.8752 438.725 97.5852L440.7 92.1528C440.776 91.8583 440.65 91.5485 440.39 91.3912C439.086 90.4502 437.795 89.4967 436.406 88.6815C434.241 87.4294 431.939 86.4323 429.545 85.7102C429.186 85.6195 428.821 85.8273 428.715 86.1812L426.079 93.4299L425.694 94.4896C425.613 94.7843 425.74 95.0969 426.004 95.2511C429.406 96.8083 433.062 97.7385 436.795 97.9969C437.661 98.0561 437.658 96.7071 436.795 96.6482C433.298 96.4069 429.874 95.5392 426.685 94.0865L426.995 94.8481L429.63 87.5994L430.016 86.5397L429.186 87.0107C431.525 87.7173 433.771 88.6994 435.878 89.9363C437.211 90.7283 438.454 91.6496 439.709 92.5558L439.399 91.7942L437.424 97.2267L438.074 96.7316L436.795 96.6482C435.928 96.5919 435.931 97.9407 436.795 97.997Z" fill="black"/>
<path d="M438.075 97.404L440.041 91.9981C443.58 91.095 447.32 92.3474 449.602 95.1995C450.931 96.8606 453.009 97.7396 455.127 97.5373L457.045 97.3541L455.319 98.9839C452.691 101.551 449.056 102.815 445.402 102.433C442.78 102.107 440.417 100.692 438.891 98.5344L438.075 97.404Z" fill="#458DC9"/>
<path d="M438.725 97.5834L440.691 92.1775L440.22 92.6484C442.876 91.9819 445.692 92.6118 447.811 94.3467C448.878 95.2365 449.624 96.4076 450.811 97.165C452.006 97.9221 453.404 98.2952 454.817 98.234C455.561 98.1991 456.304 98.0994 457.045 98.0287L456.568 96.8775C456.004 97.41 455.44 97.9425 454.876 98.475C453.673 99.6253 452.251 100.523 450.695 101.116C447.553 102.28 443.875 102.113 441.182 99.9732C440.21 99.1251 439.36 98.1459 438.657 97.0636C438.154 96.3663 436.984 97.0388 437.493 97.7444C438.178 98.7914 438.978 99.7592 439.877 100.63C441.235 101.847 442.9 102.668 444.693 103.004C448.467 103.68 452.33 102.416 455.227 99.9691C456.024 99.2956 456.764 98.5473 457.522 97.8309C457.922 97.4532 457.637 96.6232 457.045 96.6797C455.551 96.8224 454.069 97.0738 452.613 96.5591C451.62 96.1834 450.745 95.5494 450.078 94.7226C449.317 93.8078 448.408 93.0269 447.388 92.4122C445.395 91.248 443.061 90.8074 440.781 91.1649C440.245 91.2463 439.631 91.266 439.39 91.819C439.35 91.9114 439.321 92.0107 439.286 92.1052L438.679 93.7762L437.425 97.2248C437.128 98.0419 438.431 98.394 438.725 97.5834Z" fill="black"/>
<path d="M221.347 138.804L218.353 136.476C216.324 134.896 214.478 133.095 212.851 131.104C211.593 129.568 212.663 131.128 210.801 128.645C206.081 122.351 193.522 122.878 192.144 123.924C190.766 124.971 188.845 128.311 189.671 129.319C193.25 133.689 199.572 136.107 199.572 136.107L205.225 148.392L212.805 155.514" fill="#FBDFAE"/>
<path d="M221.823 138.327C220.839 137.562 219.855 136.797 218.871 136.032C217.796 135.196 216.77 134.298 215.8 133.342C214.784 132.339 213.885 131.249 212.948 130.175C212.748 129.946 212.513 129.754 212.318 129.521C211.662 128.741 211.119 127.877 210.395 127.155C208.877 125.718 207.059 124.634 205.073 123.982C201.563 122.751 197.82 122.327 194.123 122.739C193.562 122.789 193.007 122.892 192.465 123.047C191.906 123.239 191.411 123.584 191.036 124.041C190.273 124.887 189.659 125.856 189.22 126.907C188.886 127.702 188.549 128.767 189.03 129.576C189.391 130.098 189.813 130.575 190.288 130.996C190.74 131.445 191.217 131.869 191.71 132.273C192.675 133.058 193.691 133.776 194.753 134.422C196.162 135.286 197.636 136.036 199.163 136.666C199.239 136.697 199.316 136.728 199.393 136.758L198.989 136.448L203.371 145.971L204.366 148.133C204.463 148.411 204.605 148.672 204.786 148.906C205.923 150.109 207.221 151.193 208.428 152.327L212.328 155.991C212.96 156.585 213.916 155.633 213.282 155.038L208.87 150.893L206.311 148.488C206.157 148.344 205.923 148.016 205.724 147.937C205.639 147.903 205.785 148.118 205.792 148.02C205.795 147.964 205.716 147.856 205.693 147.805L202.917 141.772C202.023 139.83 201.184 137.851 200.232 135.936C200.138 135.711 199.956 135.535 199.729 135.448C199.65 135.412 199.567 135.383 199.486 135.35C199.453 135.337 199.317 135.279 199.482 135.349C199.442 135.332 199.401 135.315 199.361 135.297C199.246 135.247 199.13 135.197 199.016 135.145C197.642 134.53 196.314 133.818 195.042 133.014C193.281 131.948 191.694 130.617 190.337 129.068C190.144 128.839 190.128 128.836 190.149 128.525C190.188 128.167 190.283 127.817 190.429 127.487C190.758 126.681 191.207 125.929 191.762 125.258C191.988 124.958 192.253 124.689 192.548 124.457C192.441 124.533 192.576 124.449 192.601 124.432C192.772 124.318 192.504 124.455 192.665 124.401C193.011 124.287 193.366 124.201 193.727 124.144C194.238 124.067 194.753 124.016 195.27 123.991C195.923 123.956 196.578 123.95 197.231 123.967C200.357 124.048 203.612 124.602 206.43 126.006C207.885 126.693 209.169 127.697 210.187 128.943C210.62 129.497 211.005 130.113 211.492 130.622C211.657 130.795 211.836 130.947 211.995 131.129C213.496 132.932 215.136 134.616 216.899 136.164C217.89 136.995 218.929 137.772 219.95 138.565L220.87 139.28C221.138 139.532 221.555 139.532 221.823 139.28C222.085 139.016 222.085 138.591 221.823 138.327L221.823 138.327Z" fill="black"/>
<path d="M211.498 155.161L204.781 148.954L201.896 145.836C199.033 142.787 194.966 141.164 190.791 141.405C188.584 141.513 186.378 140.9 184.428 140.236L173.936 127.296H197.084C199.088 127.296 200.996 128.156 202.324 129.657L203.741 131.258C204.114 131.681 204.673 131.89 205.232 131.817C205.792 131.743 206.278 131.397 206.53 130.893" fill="#FBDFAE"/>
<path d="M211.975 154.684L205.937 149.105C203.928 147.248 202.338 144.957 200.084 143.369C197.701 141.72 194.89 140.8 191.994 140.721C191.182 140.695 190.373 140.77 189.563 140.72C188.716 140.659 187.876 140.524 187.053 140.315C186.634 140.213 186.218 140.097 185.805 139.972C185.631 139.92 185.458 139.866 185.285 139.81C185.199 139.783 185.114 139.755 185.028 139.727C184.851 139.668 184.701 139.568 184.903 139.758C184.866 139.719 184.831 139.676 184.8 139.631C183.144 137.456 181.348 135.373 179.626 133.25L176.371 129.235C175.754 128.474 175.173 127.644 174.502 126.93C174.47 126.895 174.442 126.856 174.412 126.819L173.935 127.97H193.708C195.03 127.97 196.394 127.875 197.712 127.998C198.937 128.12 200.1 128.597 201.057 129.371C201.646 129.896 202.191 130.469 202.687 131.084C203.182 131.643 203.638 132.228 204.401 132.427C205.472 132.702 206.592 132.209 207.112 131.233C207.499 130.459 206.336 129.775 205.947 130.552C205.795 130.872 205.492 131.092 205.141 131.137C204.791 131.183 204.441 131.047 204.213 130.777C203.838 130.382 203.49 129.959 203.129 129.551C201.92 128.078 200.23 127.08 198.357 126.732C196.973 126.508 195.499 126.621 194.103 126.621H173.935C173.666 126.63 173.427 126.795 173.324 127.043C173.222 127.291 173.274 127.577 173.458 127.773L177.788 133.113L183.566 140.239C183.683 140.405 183.811 140.563 183.95 140.712C184.218 140.895 184.521 141.021 184.841 141.083C185.246 141.214 185.654 141.338 186.066 141.452C186.877 141.678 187.704 141.849 188.538 141.964C190.111 142.175 191.689 141.974 193.263 142.165C194.686 142.337 196.072 142.737 197.369 143.347C198.677 143.963 199.875 144.79 200.914 145.795C201.386 146.253 201.823 146.748 202.269 147.23C202.999 148.02 203.696 148.868 204.486 149.599L210.838 155.468L211.021 155.637C211.658 156.226 212.614 155.274 211.975 154.684L211.975 154.684Z" fill="black"/>
<path d="M222.57 139.064L216.532 135.011L205.304 149.983L210.221 154.146" fill="white"/>
<path d="M222.91 138.482L216.872 134.428C216.549 134.25 216.143 134.356 215.95 134.67L212.147 139.74L206.118 147.78L204.721 149.642C204.566 149.906 204.61 150.243 204.827 150.459L209.744 154.623C210.403 155.18 211.361 154.231 210.698 153.669L205.781 149.505L205.886 150.323L209.688 145.253L215.718 137.213L217.114 135.351L216.192 135.593L222.23 139.646C222.952 140.131 223.628 138.964 222.91 138.482H222.91Z" fill="black"/>
<path d="M287.004 130.218L270.612 186.409C263.274 194.852 250.808 196.533 241.495 190.336L215.364 171.301C212.665 169.336 210.824 166.409 210.219 163.126L208.353 152.987L219.52 137.431L220.586 137.764C228.041 140.091 234.771 144.297 240.131 149.978L252.757 163.36L261.515 134.237C263.035 129.182 267.689 125.722 272.967 125.722H282.283" fill="#EA2F2F"/>
<path d="M286.354 130.039L284.639 135.92L280.579 149.837L275.711 166.525L271.651 180.442L270.409 184.698L270.078 185.833C270.049 185.933 270.014 186.033 269.99 186.134C269.98 186.157 269.973 186.182 269.969 186.208C269.971 186.262 270.224 185.931 269.939 186.156C269.563 186.511 269.205 186.885 268.866 187.277C268.466 187.667 268.051 188.042 267.622 188.402C266.821 189.071 265.97 189.68 265.078 190.223C259.807 193.44 253.412 194.25 247.506 192.447C245.251 191.758 243.127 190.696 241.222 189.307L237.094 186.3L223.613 176.48C220.977 174.56 218.332 172.653 215.706 170.72C213.968 169.434 212.595 167.718 211.719 165.741C211.26 164.631 210.934 163.471 210.748 162.285L209.344 154.659L209.003 152.808L208.935 153.327L212.697 148.086L218.726 139.688L220.102 137.772L219.341 138.082C223.259 139.255 227.016 140.914 230.522 143.021C233.91 145.113 237.009 147.642 239.737 150.542C242.773 153.758 245.808 156.975 248.842 160.193L252.281 163.837C252.452 164.003 252.698 164.068 252.928 164.007C253.159 163.946 253.341 163.769 253.408 163.54L255.302 157.241L259.088 144.649L261.918 135.239C262.266 133.941 262.796 132.699 263.493 131.55C265.219 128.903 267.966 127.093 271.079 126.552C272.707 126.267 274.447 126.397 276.093 126.397H282.284C282.647 126.384 282.935 126.086 282.935 125.723C282.935 125.359 282.647 125.061 282.284 125.048C279.179 125.048 276.073 125.032 272.969 125.048C269.723 125.063 266.605 126.312 264.246 128.541C262.616 130.119 261.428 132.096 260.8 134.276L258.346 142.435L254.482 155.286L252.935 160.431C252.674 161.297 252.33 162.176 252.144 163.062C252.135 163.102 252.119 163.142 252.107 163.182L253.235 162.884L244.75 153.891L240.81 149.715C238.308 147.05 235.507 144.683 232.462 142.66C228.507 140.107 224.21 138.128 219.699 136.781C219.405 136.706 219.096 136.832 218.938 137.091L215.643 141.68L209.94 149.624L208.105 152.181C207.986 152.326 207.877 152.478 207.777 152.637C207.669 152.946 207.671 153.283 207.781 153.591L209.349 162.108C209.549 163.43 209.89 164.727 210.365 165.978C211.348 168.337 212.96 170.381 215.026 171.886C216.073 172.655 217.126 173.415 218.176 174.18L225.343 179.401L233.473 185.322L239.642 189.816C241.372 191.129 243.258 192.224 245.257 193.075C252.114 195.837 259.882 195.125 266.122 191.161C267.163 190.496 268.149 189.749 269.071 188.928C269.547 188.505 270.003 188.063 270.441 187.601C270.775 187.315 271.054 186.971 271.264 186.585C271.552 185.849 271.716 185.037 271.937 184.279L273.637 178.452L276.031 170.244L278.825 160.666L281.676 150.894L284.292 141.923L286.334 134.924L287.502 130.92L287.655 130.398C287.898 129.563 286.597 129.206 286.354 130.039L286.354 130.039Z" fill="black"/>
<path d="M300.167 119.611L286.331 125.491L300.167 119.611Z" fill="#389B48"/>
<path d="M299.827 119.029L287.687 124.188L285.991 124.909C285.671 125.098 285.564 125.51 285.749 125.831C285.943 126.145 286.349 126.252 286.671 126.073L298.811 120.915L300.507 120.194C300.827 120.004 300.935 119.593 300.749 119.271C300.556 118.957 300.149 118.851 299.827 119.029H299.827Z" fill="black"/>
<path d="M253.941 156.999L252.142 162.932L249.255 172.453L248.592 174.638C248.339 175.471 249.641 175.827 249.892 174.997L251.692 169.064L254.579 159.544L255.241 157.358C255.494 156.525 254.192 156.17 253.941 156.999Z" fill="black"/>
<path d="M296.36 316.806L295.097 338.372L303.577 341.455L300.011 356.608L274.416 352.759L274.379 311.562" fill="#FBDFAE"/>
<path d="M295.686 316.806L295.259 324.08L294.579 335.689L294.422 338.372C294.426 338.674 294.627 338.938 294.917 339.023L302.327 341.716L303.397 342.105L302.926 341.275L299.802 354.553L299.36 356.428L300.19 355.957L291.504 354.651L277.772 352.586L274.595 352.109L275.09 352.759L275.086 348.653L275.077 338.797L275.067 326.929L275.057 316.627C275.056 314.968 275.125 313.293 275.053 311.635C275.052 311.611 275.053 311.587 275.053 311.563C275.04 311.199 274.742 310.911 274.378 310.911C274.015 310.911 273.717 311.199 273.704 311.563L273.708 315.668L273.717 325.525L273.727 337.393L273.737 347.695C273.738 349.353 273.669 351.029 273.741 352.686C273.742 352.711 273.741 352.735 273.741 352.759C273.743 353.062 273.945 353.327 274.236 353.409L282.922 354.715L296.655 356.78L299.831 357.258C300.189 357.348 300.555 357.141 300.661 356.787L303.785 343.509L304.226 341.634C304.315 341.276 304.108 340.912 303.755 340.804L296.346 338.111L295.276 337.722L295.771 338.372L296.197 331.098L296.877 319.489L297.034 316.806C297.085 315.939 295.736 315.942 295.686 316.806Z" fill="black"/>
<path d="M302.685 359.728L315.268 359.573C315.268 359.573 319.556 347.475 303.742 341.511L300.799 347.532C299.235 350.731 295.986 352.759 292.425 352.759H274.379V359.728H281.16L281.234 359.597C281.681 358.801 282.487 358.272 283.395 358.178C284.303 358.084 285.2 358.436 285.801 359.123L286.33 359.728L302.685 359.728Z" fill="white"/>
<path d="M302.685 360.402L313.699 360.266L315.268 360.247C315.569 360.24 315.831 360.04 315.918 359.752C316.398 358.236 316.578 356.64 316.447 355.055C316.202 351.442 314.585 348.06 311.927 345.601C309.646 343.448 306.834 341.968 303.921 340.861C303.626 340.779 303.313 340.907 303.159 341.171L300.384 346.848C299.775 348.181 298.865 349.355 297.725 350.276C296.202 351.445 294.338 352.08 292.418 352.084C288.157 352.111 283.895 352.084 279.633 352.084H274.378C274.008 352.09 273.709 352.389 273.704 352.759V359.727C273.709 360.097 274.008 360.396 274.378 360.402H281.159C281.399 360.401 281.621 360.274 281.742 360.068C282.218 359.1 283.327 358.623 284.357 358.943C284.807 359.115 285.2 359.409 285.492 359.792C285.745 360.08 285.928 360.363 286.343 360.401C287.2 360.48 288.102 360.401 288.961 360.401H302.685C303.048 360.389 303.336 360.09 303.336 359.727C303.336 359.364 303.048 359.066 302.685 359.053H286.33L286.806 359.25C285.998 358.326 285.175 357.578 283.879 357.495C282.505 357.433 281.219 358.17 280.577 359.387L281.159 359.053H274.378L275.053 359.727V352.759L274.378 353.433H287.262C288.968 353.433 290.673 353.442 292.378 353.433C296.189 353.422 299.671 351.27 301.384 347.865C302.377 345.867 303.344 343.856 304.324 341.852L303.562 342.161C307.798 343.771 311.952 346.382 313.962 350.601C314.566 351.897 314.943 353.288 315.073 354.713C315.126 355.322 315.137 355.934 315.107 356.545C315.094 356.813 315.073 357.081 315.044 357.348C315.037 357.419 315.005 357.677 315.014 357.61C315.021 357.558 314.983 357.814 314.971 357.891C314.897 358.401 314.779 358.904 314.617 359.393L315.268 358.898L304.254 359.034L302.685 359.053C301.818 359.064 301.815 360.413 302.685 360.402Z" fill="black"/>
<path d="M380.893 110.326L382.723 106.709C383.968 104.247 384.933 101.653 385.598 98.9758C386.116 96.8927 386.716 94.1634 387.262 90.8863C388.6 82.8526 391.589 84.6423 405.154 91.2835C400.552 95.5924 400.747 97.7486 400.747 97.7486L400.896 112.233L396.813 122.601" fill="#FBDFAE"/>
<path d="M381.475 110.666C382.479 108.681 383.542 106.712 384.408 104.661C386.081 100.695 386.965 96.4456 387.713 92.2214C387.889 90.9107 388.172 89.6167 388.561 88.3526C388.755 87.6888 389.132 87.0932 389.65 86.6345C389.538 86.7256 389.673 86.6176 389.72 86.5883C389.793 86.5435 389.866 86.5011 389.94 86.459C389.99 86.4302 390.148 86.3642 390.011 86.4197C390.1 86.3841 390.19 86.3531 390.282 86.3269C390.579 86.2302 390.893 86.1965 391.204 86.2278C392.157 86.3031 393.093 86.5184 393.984 86.8668C395.501 87.4234 396.988 88.0581 398.439 88.7681C400.577 89.7746 402.692 90.8269 404.814 91.8658L404.678 90.8067C403.159 92.2367 401.62 93.8359 400.677 95.7221C400.329 96.3427 400.123 97.0324 400.073 97.7421C400.036 99.5573 400.11 101.382 400.129 103.197L400.212 111.322C400.201 111.596 400.204 111.87 400.22 112.143C400.242 112.328 400.155 112.111 400.244 112.058C400.204 112.082 400.167 112.252 400.151 112.292L398.997 115.225L396.163 122.421C395.845 123.229 397.149 123.58 397.464 122.78L399.872 116.664L401.257 113.146C401.443 112.773 401.548 112.365 401.567 111.948C401.519 107.265 401.471 102.582 401.423 97.8997C401.422 97.8091 401.428 97.7152 401.424 97.6248C401.416 97.453 401.412 97.6721 401.419 97.635C401.436 97.5548 401.449 97.4741 401.468 97.3942C401.521 97.1768 401.591 96.9638 401.676 96.7567C401.995 96.0669 402.385 95.4123 402.84 94.8039C403.677 93.7071 404.611 92.6884 405.631 91.7603C405.777 91.6116 405.847 91.4042 405.82 91.1975C405.794 90.9909 405.674 90.8079 405.495 90.7011C402.081 89.0295 398.689 87.2363 395.141 85.8613C393.409 85.1904 391.209 84.3875 389.397 85.2273C387.718 86.0059 387.137 88.0775 386.792 89.7343C386.376 91.7351 386.081 93.759 385.651 95.7584C385.237 97.8223 384.7 99.8597 384.044 101.86C383.073 104.692 381.659 107.322 380.311 109.986C379.92 110.758 381.083 111.442 381.475 110.666L381.475 110.666Z" fill="black"/>
<path d="M396.693 92.1755C396.35 88.1342 397.222 85.5925 397.222 85.5925C398.864 80.1189 401.48 79.8944 406.224 79.8259C410.967 79.7574 412.016 74.6032 407.957 74.8769C407.957 74.8769 395.357 71.7185 390.966 80.9665C390.531 81.8605 390.154 82.6085 389.827 83.2335C388.531 85.7155 387.637 88.3873 387.178 91.1494L386.737 93.7971" fill="#FBDFAE"/>
<path d="M397.368 92.1755C397.135 90.0284 397.306 87.8568 397.872 85.7727C398.488 83.7588 399.44 81.6812 401.587 80.9819C402.587 80.6941 403.621 80.5448 404.661 80.5382C405.907 80.4873 407.177 80.5725 408.361 80.1076C409.992 79.467 411.716 77.6823 410.993 75.7821C410.644 74.9477 409.874 74.3644 408.977 74.254C408.696 74.2074 408.412 74.1874 408.128 74.1945C407.968 74.199 408.213 74.2272 408.099 74.2173C407.999 74.2013 407.9 74.1796 407.803 74.1523C406.61 73.9089 405.4 73.7601 404.183 73.7074C400.139 73.5179 395.8 74.374 392.791 77.2626C391.917 78.1072 391.184 79.0855 390.618 80.1607C389.82 81.6704 389.02 83.218 388.349 84.7887C387.249 87.3669 386.685 90.0325 386.227 92.7801L386.088 93.6179C385.947 94.467 387.246 94.832 387.388 93.9765C387.664 91.9763 388.066 89.9956 388.592 88.0464C389.104 86.3899 389.769 84.7844 390.578 83.2506C391.234 81.9782 391.786 80.6374 392.633 79.4747C395.023 76.1946 399.156 75.046 403.04 75.0314C403.815 75.0291 404.59 75.0658 405.362 75.1415C406.012 75.2048 406.306 75.2435 406.953 75.3586C407.218 75.4058 407.48 75.4694 407.745 75.5193C408.044 75.5755 408.35 75.5197 408.653 75.5609C408.954 75.5937 409.24 75.708 409.481 75.8915C409.581 75.9653 409.658 76.0661 409.703 76.1821C409.748 76.2718 409.71 76.167 409.748 76.2972C409.76 76.338 409.802 76.5788 409.793 76.4812C409.822 76.7674 409.771 77.056 409.647 77.3156C409.267 78.0673 408.599 78.6332 407.795 78.884C406.677 79.2653 405.472 79.1448 404.31 79.2061C403.266 79.2302 402.23 79.3901 401.228 79.6819C397.231 80.9824 396.078 85.8687 395.951 89.6002C395.925 90.4594 395.947 91.3193 396.019 92.1759C396.088 93.0352 397.437 93.0428 397.367 92.1759L397.368 92.1755Z" fill="black"/>
<path d="M390.208 120.406L398.717 120.152C398.717 120.152 402.745 112.489 405.217 107.607C405.999 106.055 406.243 104.287 405.912 102.581C405.481 100.444 405.651 98.2283 406.404 96.1814C406.404 96.1814 411.08 100.138 414.186 95.3897L414.261 95.2549C415.683 92.708 416.828 88.5355 413.362 87.7976L412.811 87.023C411.86 85.6851 410.3 84.9159 408.66 84.9766L406.661 85.0504L406.373 84.5513C405.418 82.8982 403.642 82.3462 401.742 82.5297C399.136 79.9233 395.169 81.9271 393.754 84.7972" fill="#FBDFAE"/>
<path d="M390.208 121.081L398.717 120.826C398.957 120.826 399.178 120.699 399.299 120.492C400.5 118.208 401.694 115.92 402.881 113.628C403.801 111.853 404.716 110.074 405.624 108.293C406.203 107.209 406.567 106.023 406.696 104.801C406.813 103.517 406.47 102.308 406.39 101.038C406.315 99.9336 406.398 98.824 406.636 97.7427C406.71 97.4085 406.801 97.0783 406.909 96.7534C406.94 96.6596 407.125 96.1993 406.986 96.5219L405.927 96.6583C407.435 97.9265 409.616 98.76 411.576 98.2452C413.264 97.8019 414.471 96.4235 415.203 94.9019C415.841 93.5751 416.367 92.074 416.317 90.5815C416.339 88.9179 415.173 87.4747 413.541 87.1474L413.945 87.4573C413.627 86.9743 413.28 86.5115 412.904 86.0717C412.192 85.3045 411.277 84.7546 410.265 84.4855C409.1 84.1772 407.851 84.3323 406.661 84.3762L407.244 84.7102C406.802 83.8253 406.131 83.0751 405.3 82.5379C404.213 81.9496 402.97 81.7113 401.742 81.8554L402.219 82.0529C399.279 79.2032 394.822 81.2031 393.172 84.457C392.78 85.2294 393.943 85.9128 394.336 85.1377C395.34 83.1586 397.844 81.2831 400.144 82.2351C400.429 82.3559 400.696 82.5152 400.937 82.7084C401.268 82.9713 401.429 83.2048 401.892 83.1912C402.548 83.1416 403.208 83.201 403.845 83.3668C404.933 83.695 405.535 84.4485 406.079 85.3909C406.2 85.5982 406.422 85.7255 406.661 85.7248C408.222 85.6672 409.79 85.4474 411.172 86.3538C411.886 86.822 412.26 87.4834 412.773 88.1279C413.07 88.5009 413.515 88.4852 413.918 88.694C414.232 88.8501 414.494 89.0948 414.67 89.3978C415.479 90.8113 414.676 92.8962 414.039 94.221C413.228 95.9079 411.803 97.2977 409.805 97.0184C409.063 96.8984 408.351 96.6382 407.707 96.2515C407.477 96.1195 407.256 95.9751 407.039 95.8233C406.927 95.7453 406.835 95.6707 406.947 95.7582C406.925 95.7407 406.903 95.7228 406.881 95.7044C406.588 95.4585 406.008 95.408 405.822 95.8409C405.354 97.0051 405.089 98.2409 405.039 99.4947C405.014 100.707 405.108 101.919 405.321 103.113C405.486 104.353 405.327 105.614 404.861 106.774C404.49 107.69 403.975 108.566 403.524 109.444C403.058 110.353 402.59 111.261 402.121 112.168C401.249 113.853 400.374 115.535 399.495 117.216C399.043 118.081 398.589 118.946 398.135 119.811L398.718 119.477L390.208 119.732C389.343 119.758 389.339 121.107 390.208 121.081L390.208 121.081Z" fill="black"/>
<path d="M304.25 205.744C305.345 220.674 300.463 324.849 300.463 324.849L256.208 324.964L260.682 225.376C260.17 217.884 261.383 210.376 264.226 203.426L272.542 183.101L300.977 179.27" fill="#FFC41F"/>
<path d="M267.69 238.792C267.77 244.494 264.576 249.738 259.473 252.282L259.345 255.134C264.607 257.496 268.024 262.694 268.104 268.462C268.049 264.527 269.559 260.732 272.302 257.911C275.046 255.091 278.797 253.475 282.731 253.42C274.538 253.534 267.804 246.985 267.69 238.792Z" fill="white"/>
<ellipse cx="274.416" cy="306.453" rx="14.8361" ry="14.8361" fill="white"/>
<path d="M268.529 192.912L264.227 203.426C263.899 204.228 263.593 205.037 263.311 205.853C265.634 208.5 266.936 211.89 266.981 215.412C266.926 211.477 268.436 207.682 271.179 204.861C273.922 202.04 277.674 200.425 281.608 200.37C276.217 200.446 271.209 197.591 268.529 192.912Z" fill="white"/>
<path d="M303.576 205.744C303.739 207.99 303.734 210.251 303.736 212.501C303.739 216.079 303.684 219.656 303.615 223.233C303.526 227.81 303.412 232.386 303.273 236.961C303.121 242.161 302.954 247.361 302.77 252.56C302.581 257.995 302.382 263.431 302.171 268.866C301.965 274.229 301.752 279.592 301.531 284.954C301.33 289.858 301.123 294.762 300.912 299.665C300.738 303.731 300.56 307.796 300.379 311.862C300.25 314.769 300.119 317.675 299.986 320.582C299.925 321.918 299.715 323.339 299.797 324.676C299.798 324.734 299.795 324.792 299.789 324.849L300.464 324.175L285.498 324.214L261.66 324.275L256.208 324.29L256.883 324.964L257.081 320.548L257.603 308.937L258.338 292.581L259.175 273.933L260.003 255.513L260.717 239.621L261.203 228.784L261.327 226.034C261.404 224.327 261.216 222.622 261.255 220.91C261.398 215.015 262.607 209.195 264.826 203.731C265.39 202.339 265.963 200.95 266.532 199.56L272.744 184.378L273.193 183.281L272.722 183.752L282.332 182.457L297.646 180.393L301.157 179.92C302.013 179.805 301.649 178.505 300.799 178.619L291.189 179.915L275.875 181.978L272.364 182.451C272.12 182.484 271.975 182.721 271.893 182.922L266.781 195.416C264.537 200.898 262.058 206.323 260.883 212.161C260.311 214.999 259.985 217.881 259.91 220.775C259.87 222.336 260.01 223.887 260.005 225.443C260.003 226.006 259.954 226.574 259.929 227.137L259.517 236.307L258.85 251.152L258.035 269.291L257.189 288.127L256.419 305.272L255.835 318.273C255.739 320.408 255.603 322.544 255.547 324.68C255.544 324.775 255.538 324.87 255.534 324.964C255.538 325.335 255.838 325.634 256.209 325.639L271.174 325.6L295.012 325.538L300.464 325.524C300.833 325.517 301.131 325.219 301.138 324.849C301.182 323.914 301.225 322.979 301.268 322.043C301.385 319.493 301.501 316.943 301.615 314.393C301.786 310.565 301.955 306.736 302.121 302.907C302.327 298.17 302.528 293.433 302.725 288.695C302.944 283.437 303.156 278.178 303.363 272.919C303.577 267.449 303.783 261.979 303.98 256.508C304.169 251.212 304.347 245.916 304.512 240.619C304.658 235.88 304.786 231.14 304.897 226.399C304.984 222.531 305.056 218.662 305.079 214.793C305.094 212.181 305.105 209.566 304.993 206.956C304.975 206.552 304.954 206.148 304.925 205.744C304.862 204.884 303.513 204.877 303.576 205.744V205.744Z" fill="black"/>
<path d="M315.467 316.806L314.203 338.372L322.683 341.455L319.118 356.608L293.523 352.759L293.485 311.562" fill="#FBDFAE"/>
<path d="M314.793 316.806L314.367 324.08L313.687 335.689L313.529 338.372C313.534 338.674 313.735 338.938 314.024 339.023L321.434 341.716L322.504 342.105L322.033 341.275L318.909 354.553L318.468 356.428L319.297 355.957L310.611 354.651L296.879 352.586L293.702 352.109L294.197 352.759L294.194 348.653L294.185 338.797L294.174 326.929L294.165 316.627C294.163 314.968 294.232 313.293 294.16 311.635C294.159 311.611 294.16 311.587 294.16 311.563C294.148 311.199 293.849 310.911 293.486 310.911C293.122 310.911 292.824 311.199 292.812 311.563L292.815 315.668L292.824 325.525L292.835 337.393L292.844 347.695C292.846 349.353 292.777 351.029 292.849 352.686C292.85 352.711 292.849 352.735 292.849 352.759C292.851 353.062 293.052 353.327 293.344 353.409L302.03 354.715L315.762 356.78L318.939 357.258C319.297 357.348 319.663 357.141 319.768 356.787L322.893 343.509L323.334 341.634C323.422 341.276 323.215 340.912 322.863 340.804L315.453 338.111L314.383 337.722L314.878 338.372L315.304 331.098L315.985 319.489L316.142 316.806C316.193 315.939 314.844 315.942 314.793 316.806H314.793Z" fill="black"/>
<path d="M286.954 125.344L287.321 107.168L302.739 113.104L303.22 125.037" fill="#FBDFAE"/>
<path d="M287.628 125.344L287.752 119.225L287.95 109.412L287.995 107.168L287.142 107.818L300.657 113.022L302.559 113.754L302.064 113.104L302.486 123.57L302.546 125.037C302.58 125.902 303.929 125.907 303.894 125.037L303.472 114.572L303.413 113.104C303.404 112.804 303.205 112.543 302.918 112.454L289.403 107.25L287.5 106.518C287.297 106.464 287.081 106.507 286.914 106.634C286.747 106.761 286.649 106.958 286.646 107.168L286.523 113.287L286.325 123.1L286.279 125.344C286.262 126.212 287.611 126.212 287.628 125.344V125.344Z" fill="black"/>
<path d="M300.177 115.524C301.537 115.815 302.916 116.011 304.304 116.109C304.73 116.141 305.159 116.102 305.573 115.995C311.468 114.467 313.828 108.941 314.591 103.074H315.154C317.009 103.335 317.713 102.882 317.499 101.716C315.818 99.8802 315.111 98.8565 314.927 97.5305L314.881 96.6717C314.783 93.2339 314.389 89.8111 313.701 86.4414L284.105 85.3821C284.105 85.3821 280.261 91.7158 280.543 94.6328C281.03 99.6562 285.924 103.254 287.276 109.73" fill="#FBDFAE"/>
<path d="M299.997 116.174C300.927 116.373 301.866 116.525 302.81 116.639C303.752 116.813 304.717 116.822 305.663 116.666C307.088 116.329 308.428 115.7 309.598 114.818C311.857 113.116 313.305 110.644 314.191 107.992C314.704 106.391 315.064 104.744 315.264 103.074L314.59 103.748C315.715 103.748 317.353 104.149 318.016 102.92C318.157 102.64 318.223 102.329 318.208 102.016C318.195 101.466 317.948 101.215 317.595 100.819C317.008 100.201 316.49 99.5195 316.053 98.7873C315.906 98.5261 315.789 98.2489 315.705 97.961C315.637 97.7594 315.598 97.5491 315.59 97.3365C315.553 96.5333 315.528 95.7295 315.48 94.9268C315.366 92.9692 315.151 91.0176 314.856 89.0791C314.713 88.1369 314.558 87.1926 314.35 86.2619C314.267 85.9715 314.002 85.7704 313.7 85.7668L303.706 85.409L287.77 84.8387L284.104 84.7075C283.865 84.7077 283.643 84.8348 283.522 85.0415C282.111 87.3705 280.749 89.9467 280.095 92.6008C279.164 96.3777 281.675 99.803 283.546 102.855C284.902 105.068 286.078 107.352 286.625 109.909C286.807 110.757 288.107 110.398 287.926 109.551C287.408 107.331 286.542 105.208 285.36 103.259C284.36 101.537 283.207 99.8991 282.317 98.1148C281.618 96.7138 280.988 95.0531 281.285 93.4662C281.661 91.7989 282.264 90.1909 283.075 88.6865C283.574 87.6797 284.104 86.6834 284.687 85.7223L284.104 86.0563L294.099 86.414L310.034 86.9843L313.7 87.1156L313.05 86.6205C313.529 88.8734 313.855 91.1561 314.026 93.453C314.116 94.5251 314.161 95.5971 314.206 96.6715C314.211 97.1058 314.249 97.5392 314.319 97.9677C314.602 99.3987 315.584 100.575 316.523 101.639C316.599 101.725 316.678 101.83 316.764 101.91C316.881 102.08 316.917 102.105 316.872 101.985C316.848 101.888 316.844 101.899 316.859 102.016C316.848 102.093 316.843 102.171 316.845 102.249C316.82 102.338 316.675 102.409 316.454 102.447C315.832 102.482 315.209 102.466 314.59 102.4C314.222 102.41 313.926 102.706 313.915 103.074C313.26 108.027 311.21 113.494 306.021 115.163C304.222 115.741 302.162 115.259 300.355 114.874C299.509 114.693 299.147 115.993 299.997 116.174L299.997 116.174Z" fill="black"/>
<path d="M301.285 99.5055C301.096 98.8837 300.868 98.2743 300.602 97.6809C300.2 96.7576 299.69 95.7506 298.888 95.1103C298.406 94.6807 297.749 94.5061 297.117 94.6402C296.883 94.7029 296.701 94.8861 296.639 95.1203C296.578 95.3545 296.647 95.6037 296.819 95.7732C296.992 95.9428 297.243 96.0067 297.476 95.9408C297.496 95.9359 297.519 95.9327 297.539 95.9265C297.634 95.8971 297.467 95.9422 297.455 95.9366C297.478 95.9483 297.553 95.9308 297.581 95.9312C297.601 95.9315 297.623 95.9349 297.643 95.934C297.739 95.9297 297.566 95.9272 297.556 95.9207C297.605 95.9381 297.656 95.9498 297.708 95.9556C297.728 95.9614 297.748 95.9705 297.768 95.9752C297.862 95.9975 297.704 95.9525 297.696 95.9425C297.714 95.9659 297.787 95.9856 297.814 96C297.853 96.0214 297.892 96.0444 297.929 96.0686C297.948 96.081 297.967 96.0945 297.986 96.107C298.074 96.1641 298.005 96.1679 297.962 96.0859C297.998 96.154 298.124 96.226 298.181 96.2825C298.259 96.3605 298.333 96.4426 298.404 96.5273C298.425 96.5531 298.446 96.5795 298.467 96.6053C298.506 96.6513 298.53 96.6388 298.437 96.5657C298.475 96.6061 298.508 96.6512 298.535 96.6999C298.605 96.7983 298.672 96.8987 298.735 97.0011C298.988 97.4128 299.212 97.842 299.404 98.2855C299.427 98.3358 299.448 98.3863 299.47 98.4369C299.516 98.5412 299.454 98.3976 299.45 98.3875C299.461 98.4112 299.47 98.4367 299.48 98.461C299.523 98.5668 299.566 98.6727 299.608 98.7792C299.675 98.9525 299.739 99.1269 299.8 99.3023C299.866 99.4881 299.929 99.675 299.984 99.8639C300.047 100.098 300.23 100.28 300.465 100.342C300.699 100.403 300.948 100.334 301.117 100.162C301.287 99.9888 301.351 99.7383 301.285 99.5054L301.285 99.5055Z" fill="black"/>
<path d="M312.713 93.0173C312.118 92.6352 311.456 92.3687 310.762 92.2319C309.23 91.9047 307.631 92.1522 306.27 92.9273C305.511 93.3491 306.191 94.5145 306.951 94.0919C308.039 93.4755 309.318 93.287 310.538 93.5632C310.761 93.6173 310.982 93.6844 311.198 93.7642C311.25 93.7833 311.301 93.8048 311.353 93.8237C311.476 93.8683 311.286 93.7927 311.358 93.8252C311.434 93.8597 311.51 93.8938 311.585 93.9306C311.74 94.0036 311.89 94.0876 312.032 94.1819C312.354 94.3699 312.767 94.2616 312.955 93.94C313.143 93.6184 313.035 93.2053 312.713 93.0173H312.713Z" fill="black"/>
<ellipse cx="310.359" cy="97.0637" rx="1.0363" ry="1.03631" fill="black"/>
<path d="M308.986 97.0477C308.985 97.6261 309.342 98.1445 309.883 98.3507C310.417 98.5482 311.017 98.3957 311.392 97.9674C311.792 97.5096 311.843 96.8435 311.518 96.33C311.193 95.8166 310.569 95.5781 309.984 95.7438C309.399 95.9095 308.993 96.44 308.986 97.0477C308.987 97.2333 309.137 97.3833 309.323 97.3849C309.508 97.3813 309.656 97.2324 309.66 97.0477C309.661 97.0189 309.664 96.9901 309.665 96.9613C309.663 97.0273 309.661 96.9852 309.665 96.9667C309.675 96.9211 309.684 96.8761 309.699 96.8316C309.703 96.8187 309.739 96.7356 309.705 96.8096C309.712 96.793 309.72 96.7766 309.728 96.7604C309.753 96.7123 309.782 96.6661 309.814 96.6221C309.772 96.6801 309.807 96.6304 309.82 96.6168C309.836 96.6006 309.851 96.5835 309.867 96.5676C309.879 96.555 309.892 96.5426 309.906 96.5306C309.916 96.5211 309.987 96.4701 309.922 96.5155C309.958 96.4894 309.997 96.4653 310.036 96.4434C310.052 96.4347 310.068 96.4273 310.084 96.4187C310.141 96.3892 310.037 96.4293 310.118 96.4066C310.163 96.3942 310.206 96.3802 310.252 96.3714C310.273 96.3674 310.334 96.3651 310.26 96.3694C310.284 96.368 310.308 96.3658 310.332 96.3654C310.356 96.365 310.38 96.3649 310.404 96.366C310.405 96.366 310.499 96.3726 310.445 96.3675C310.392 96.3626 310.482 96.3748 310.484 96.3752C310.511 96.3809 310.538 96.3878 310.565 96.3957C310.592 96.4036 310.617 96.413 310.643 96.4224C310.631 96.4181 310.583 96.3925 310.638 96.4211C310.679 96.4414 310.718 96.4637 310.756 96.488C310.757 96.4886 310.829 96.5404 310.788 96.509C310.748 96.4777 310.816 96.5337 310.816 96.5344C310.856 96.5711 310.893 96.6103 310.927 96.652C310.884 96.6003 310.915 96.6354 310.923 96.6487C310.937 96.6718 310.953 96.6939 310.966 96.7172C310.975 96.7329 310.984 96.7489 310.992 96.765C310.999 96.7782 311.029 96.86 311.003 96.7842C311.018 96.8275 311.032 96.8715 311.043 96.9162C311.047 96.9344 311.05 96.9525 311.054 96.9709C311.067 97.0373 311.052 96.9185 311.057 97.0079C311.059 97.0515 311.056 97.0944 311.056 97.1379C311.055 97.2293 311.072 97.0726 311.053 97.1611C311.049 97.1794 311.046 97.1978 311.042 97.216C311.031 97.2608 311.017 97.3049 311.001 97.3482C311.028 97.2724 310.996 97.3547 310.99 97.3674C310.977 97.3916 310.964 97.4153 310.95 97.4384C310.938 97.4571 310.922 97.4752 310.912 97.4948C310.89 97.538 310.963 97.4419 310.906 97.501C310.875 97.5338 310.846 97.567 310.812 97.5973C310.811 97.5983 310.743 97.6527 310.784 97.6223C310.825 97.592 310.753 97.6425 310.752 97.643C310.706 97.6725 310.658 97.6984 310.609 97.7206C310.621 97.7151 310.672 97.6989 310.613 97.7169C310.586 97.7249 310.56 97.7341 310.533 97.7411C310.515 97.7458 310.497 97.75 310.479 97.7538C310.477 97.7543 310.388 97.7649 310.441 97.761C310.495 97.757 310.401 97.7622 310.4 97.7622C310.376 97.7632 310.352 97.7632 310.328 97.7625C310.304 97.7618 310.28 97.7597 310.256 97.758C310.335 97.7635 310.253 97.7568 310.234 97.7529C310.18 97.7409 310.126 97.7251 310.074 97.7056C310.142 97.7301 310.085 97.7102 310.067 97.7008C310.04 97.6855 310.011 97.6714 309.984 97.6546C309.969 97.6451 309.954 97.6344 309.939 97.6249C309.908 97.6027 309.91 97.604 309.942 97.6289C309.928 97.6175 309.915 97.6058 309.901 97.5937C309.868 97.5634 309.838 97.53 309.808 97.4969C309.749 97.4338 309.84 97.5532 309.795 97.4794C309.781 97.4562 309.765 97.4343 309.751 97.4107C309.738 97.3871 309.726 97.3626 309.714 97.3385C309.681 97.2768 309.727 97.3912 309.706 97.3179C309.691 97.264 309.675 97.212 309.664 97.157C309.66 97.1374 309.664 97.098 309.664 97.1627C309.664 97.1245 309.66 97.0861 309.66 97.0479C309.661 96.9265 309.597 96.8138 309.492 96.7528C309.387 96.6917 309.258 96.6917 309.153 96.7528C309.048 96.8138 308.984 96.9265 308.985 97.0479L308.986 97.0477Z" fill="black"/>
<path d="M295.235 102.347C296.439 104.274 298.683 105.29 300.926 104.922C301.283 104.821 301.493 104.452 301.397 104.093C301.29 103.74 300.925 103.533 300.567 103.622C300.644 103.611 300.406 103.635 300.378 103.637C300.283 103.644 300.188 103.649 300.093 103.65C299.912 103.653 299.731 103.646 299.551 103.629C299.507 103.625 299.464 103.621 299.421 103.615C299.494 103.625 299.49 103.624 299.41 103.612C299.327 103.596 299.245 103.583 299.163 103.565C299.025 103.534 298.889 103.498 298.754 103.455C298.68 103.431 298.606 103.406 298.533 103.379C298.506 103.369 298.282 103.272 298.43 103.34C298.297 103.279 298.166 103.216 298.038 103.145C297.917 103.078 297.798 103.007 297.683 102.93C297.627 102.894 297.573 102.856 297.519 102.817C297.504 102.806 297.348 102.69 297.433 102.755C297.518 102.82 297.369 102.704 297.355 102.692C297.309 102.654 297.264 102.615 297.219 102.576C297.135 102.502 297.054 102.426 296.975 102.348C296.846 102.221 296.723 102.088 296.607 101.949C296.549 101.879 296.462 101.693 296.571 101.908C296.542 101.863 296.511 101.82 296.476 101.779C296.45 101.742 296.424 101.704 296.4 101.666C296.279 101.457 296.055 101.329 295.814 101.33C295.573 101.331 295.35 101.461 295.231 101.671C295.111 101.881 295.113 102.139 295.236 102.347L295.235 102.347Z" fill="black"/>
<path d="M321.792 359.728L334.374 359.573C334.374 359.573 338.662 347.475 322.848 341.511L319.905 347.532C318.342 350.731 315.092 352.759 311.532 352.759H293.485V359.728H300.266L300.34 359.597C300.788 358.801 301.593 358.272 302.501 358.178C303.41 358.084 304.307 358.436 304.908 359.123L305.436 359.728L321.792 359.728Z" fill="white"/>
<path d="M321.792 360.402L332.806 360.266L334.375 360.247C334.676 360.24 334.938 360.04 335.025 359.752C335.505 358.236 335.685 356.64 335.555 355.055C335.309 351.442 333.692 348.06 331.034 345.601C328.753 343.448 325.941 341.968 323.028 340.861C322.733 340.779 322.421 340.907 322.266 341.171L319.491 346.848C318.883 348.181 317.973 349.355 316.832 350.276C315.31 351.445 313.445 352.08 311.526 352.084C307.264 352.111 303.002 352.084 298.741 352.084H293.486C293.116 352.09 292.817 352.389 292.812 352.759V359.727C292.817 360.097 293.116 360.396 293.486 360.402H300.267C300.506 360.401 300.728 360.274 300.849 360.068C301.325 359.1 302.435 358.623 303.465 358.943C303.915 359.115 304.308 359.409 304.599 359.792C304.852 360.08 305.036 360.363 305.45 360.401C306.307 360.48 307.209 360.401 308.069 360.401H321.792C322.156 360.389 322.443 360.09 322.443 359.727C322.443 359.364 322.156 359.066 321.792 359.053H305.437L305.914 359.25C305.105 358.326 304.283 357.578 302.986 357.495C301.612 357.433 300.326 358.17 299.685 359.387L300.267 359.053H293.486L294.16 359.727V352.759L293.486 353.433H306.37C308.075 353.433 309.78 353.442 311.485 353.433C315.297 353.422 318.778 351.27 320.492 347.865C321.484 345.867 322.451 343.856 323.431 341.852L322.669 342.161C326.905 343.771 331.06 346.382 333.069 350.601C333.674 351.897 334.05 353.288 334.181 354.713C334.233 355.322 334.244 355.934 334.214 356.545C334.201 356.813 334.18 357.081 334.152 357.348C334.144 357.419 334.112 357.677 334.121 357.61C334.128 357.558 334.091 357.814 334.078 357.891C334.004 358.401 333.886 358.904 333.725 359.393L334.375 358.898L323.361 359.034L321.792 359.053C320.925 359.064 320.923 360.413 321.792 360.402Z" fill="black"/>
<path d="M287.607 179.27L316.042 183.102L324.358 203.426C327.202 210.376 328.414 217.885 327.903 225.376L332.595 324.964L288.121 324.85C288.121 324.85 283.017 246.97 284.112 232.04C284.112 232.04 275.421 216.218 282.552 201.733" fill="#FFC41F"/>
<path d="M328.789 244.17C328.207 251.826 321.882 257.772 314.205 257.88C318.139 257.826 321.935 259.336 324.755 262.079C327.576 264.822 329.192 268.574 329.247 272.508C329.224 270.952 329.447 269.403 329.907 267.916L328.789 244.17Z" fill="white"/>
<path d="M293.28 245.309C293.225 241.374 294.735 237.579 297.479 234.758C300.222 231.938 303.973 230.322 307.908 230.267C299.715 230.381 292.98 223.832 292.866 215.639C292.953 221.969 289.015 227.658 283.06 229.804C283.45 230.72 283.773 231.382 283.954 231.738C289.518 233.964 293.196 239.317 293.28 245.309Z" fill="white"/>
<path d="M285.964 288.795C291.297 291.127 294.773 296.361 294.854 302.18C294.799 298.246 296.309 294.451 299.053 291.63C301.796 288.809 305.547 287.193 309.482 287.138C301.289 287.253 294.555 280.704 294.44 272.511C294.522 278.372 291.145 283.732 285.822 286.188C285.869 287.062 285.917 287.931 285.964 288.795Z" fill="white"/>
<path d="M332.521 323.391L331.738 306.775C330.886 304.909 330.433 302.885 330.406 300.834C330.461 304.769 328.951 308.564 326.207 311.385C323.464 314.205 319.713 315.821 315.778 315.876C321.824 315.792 327.315 319.384 329.66 324.957L331.811 324.962C332.017 324.425 332.254 323.901 332.521 323.391Z" fill="white"/>
<path d="M287.428 179.92L297.038 181.215L312.352 183.279L315.863 183.752L315.392 183.281L320.477 195.709C322.712 201.17 325.188 206.577 326.375 212.388C326.964 215.283 327.286 218.227 327.335 221.181C327.36 222.609 327.221 224.033 327.232 225.457C327.237 226.037 327.287 226.621 327.314 227.201L327.75 236.45L328.449 251.281L329.301 269.364L330.188 288.197L330.995 305.331L331.607 318.312C331.706 320.424 331.697 322.575 331.907 324.68C331.916 324.774 331.916 324.87 331.92 324.964L332.595 324.29L317.525 324.251L293.606 324.189L288.121 324.175L288.796 324.849C288.544 321.012 288.302 317.173 288.07 313.334C287.522 304.418 287.004 295.5 286.517 286.581C285.969 276.483 285.461 266.383 285.076 256.277C284.795 248.904 284.452 241.491 284.684 234.112C284.712 233.25 284.959 232.219 284.557 231.437C283.848 230.029 283.235 228.573 282.724 227.081C280.567 220.945 279.663 214.183 281.125 207.783C281.575 205.81 282.249 203.894 283.134 202.073C283.512 201.296 282.35 200.611 281.97 201.392C278.739 208.037 278.431 215.555 280.049 222.682C280.611 225.149 281.388 227.562 282.371 229.894C282.649 230.554 282.94 231.21 283.259 231.852C283.321 232.005 283.396 232.153 283.483 232.293C283.494 232.319 283.508 232.344 283.523 232.367C283.349 232.384 283.486 231.905 283.418 232.325C283.294 233.498 283.254 234.678 283.298 235.857C283.276 237.396 283.281 238.935 283.297 240.473C283.339 244.503 283.455 248.532 283.593 252.559C283.935 262.58 284.426 272.595 284.955 282.607C285.448 291.92 285.979 301.231 286.55 310.539C286.836 315.24 287.068 319.95 287.434 324.645C287.439 324.713 287.442 324.781 287.447 324.849C287.454 325.219 287.752 325.516 288.121 325.524L303.191 325.562L327.11 325.624L332.595 325.638C332.965 325.635 333.265 325.335 333.269 324.964L333.059 320.516L332.511 308.882L331.74 292.513L330.861 273.861L329.99 255.378L329.24 239.464L328.733 228.699L328.606 225.995C328.52 224.167 328.724 222.339 328.667 220.505C328.488 214.671 327.284 208.915 325.11 203.498C324.54 202.081 323.954 200.67 323.375 199.256L317.142 184.02L316.693 182.922C316.61 182.721 316.465 182.484 316.222 182.451L306.612 181.156L291.298 179.093L287.787 178.62C286.938 178.505 286.571 179.805 287.428 179.92Z" fill="black"/>
<path d="M286.805 125.617H313.631L325.848 146.392C325.848 146.392 317.215 170.52 315.985 183.744L274.435 183.115C270.516 165.848 266.441 148.807 268.56 136.529" fill="#EA2F2F"/>
<path d="M286.805 126.292H313.631L313.049 125.958L317.174 132.972L323.751 144.157L325.266 146.733L325.198 146.213C324.134 149.187 323.15 152.19 322.192 155.2C320.246 161.319 318.438 167.496 317.021 173.76C316.238 177.049 315.667 180.383 315.311 183.745L315.985 183.07L311.843 183.008L301.947 182.858L289.926 182.676L279.572 182.519L276.14 182.467C275.597 182.426 275.052 182.418 274.508 182.442C274.484 182.443 274.46 182.443 274.436 182.441L275.086 182.936C273.601 176.394 272.077 169.857 270.836 163.264C269.726 157.368 268.808 151.396 268.671 145.388C268.573 142.484 268.754 139.578 269.21 136.709C269.355 135.86 268.056 135.495 267.91 136.35C266.988 141.761 267.233 147.307 267.85 152.738C268.58 159.167 269.845 165.526 271.215 171.845C272.044 175.668 272.92 179.48 273.786 183.295C273.869 183.585 274.133 183.786 274.436 183.79L278.578 183.852L288.474 184.002L300.495 184.184L310.85 184.341C312.531 184.367 314.232 184.47 315.913 184.418C315.937 184.417 315.961 184.419 315.985 184.419C316.354 184.41 316.651 184.113 316.66 183.745C317.09 179.18 318.132 174.669 319.255 170.233C320.436 165.57 321.791 160.953 323.237 156.366C324.171 153.404 325.147 150.454 326.165 147.519C326.325 147.061 326.657 146.494 326.413 146.021C326.109 145.435 325.738 144.875 325.404 144.306L320.501 135.968L315.458 127.393C315.065 126.724 314.687 126.042 314.276 125.383C313.96 124.877 313.501 124.943 312.985 124.943H286.805C286.442 124.956 286.154 125.254 286.154 125.617C286.154 125.981 286.442 126.279 286.805 126.292Z" fill="black"/>
<path d="M379.206 112.62L383.161 106.517L400.747 116.281L397.375 123.474" fill="white"/>
<path d="M379.788 112.96L383.743 106.858L382.821 107.1L388.759 110.397L398.228 115.654L400.407 116.864L400.165 115.941L396.793 123.134C396.427 123.915 397.589 124.601 397.957 123.815L401.329 116.622C401.509 116.299 401.402 115.892 401.087 115.699L395.149 112.402L385.681 107.145L383.502 105.935C383.179 105.756 382.772 105.862 382.579 106.177L378.624 112.28C378.15 113.01 379.317 113.687 379.788 112.96H379.788Z" fill="black"/>
<path d="M300.215 125.278L315.248 125.237C318.106 125.23 320.924 125.905 323.468 127.207L348.883 140.211L361.017 146.836L367.357 129.565C370.049 122.233 374.581 115.718 380.518 110.644L381.367 109.918L394.734 117.997C396.664 119.164 398.036 121.066 398.534 123.266L400.03 129.879C400.766 133.135 400.225 136.55 398.518 139.419L381.987 167.202C375.866 176.565 363.744 179.926 353.675 175.052L340.369 168.612L308.792 152.599" fill="#EA2F2F"/>
<path d="M300.215 125.952L313.473 125.917C314.06 125.915 314.647 125.912 315.234 125.912C317.67 125.904 320.08 126.409 322.307 127.395C323.445 127.907 324.547 128.515 325.657 129.083L339.854 136.348C342.772 137.84 345.72 139.285 348.61 140.83C352.522 142.921 356.398 145.083 360.291 147.208L360.677 147.419C360.858 147.52 361.076 147.534 361.269 147.455C361.461 147.377 361.608 147.215 361.667 147.016L365.895 135.499L367.892 130.06C369.099 126.744 370.682 123.578 372.611 120.622C375.186 116.792 378.296 113.348 381.844 110.395L381.027 110.501L392.869 117.658C393.375 117.964 393.883 118.266 394.387 118.576C396.161 119.666 397.422 121.424 397.885 123.453C398.391 125.612 398.867 127.777 399.353 129.94C400.067 133.178 399.492 136.567 397.752 139.389L395.295 143.518L386.455 158.374L382.766 164.575C382.138 165.63 381.543 166.71 380.825 167.707C375.667 174.731 366.814 177.998 358.331 176.007C355.936 175.429 353.784 174.358 351.586 173.294L343.738 169.495C341.43 168.378 339.142 167.234 336.855 166.075L321.749 158.415L309.769 152.34L309.132 152.017C308.359 151.626 307.676 152.789 308.451 153.182L317.475 157.758L333.441 165.854C335.874 167.087 338.292 168.354 340.747 169.542C344.94 171.572 349.128 173.613 353.327 175.631C361.275 179.503 370.742 178.459 377.656 172.949C379.762 171.285 381.547 169.25 382.924 166.946L385.713 162.26L394.753 147.066L398.181 141.305C399.206 139.583 400.193 137.893 400.658 135.905C401.138 133.79 401.129 131.593 400.631 129.481L399.788 125.759C399.554 124.722 399.362 123.664 399.07 122.641C398.437 120.461 397.01 118.596 395.072 117.414C391.07 114.954 387.031 112.554 383.011 110.124L381.708 109.336C381.442 109.188 381.11 109.231 380.89 109.442C377.727 112.088 374.899 115.112 372.471 118.446C370.059 121.838 368.113 125.538 366.685 129.447C365.162 133.586 363.642 137.727 362.125 141.868L360.367 146.657L361.357 146.254L349.877 139.985C347.354 138.608 344.764 137.347 342.205 136.037L327.465 128.495C326.269 127.884 325.074 127.272 323.878 126.66C321.028 125.233 317.875 124.514 314.688 124.565L300.621 124.602L300.215 124.603C299.852 124.616 299.563 124.914 299.563 125.278C299.563 125.641 299.852 125.94 300.215 125.952L300.215 125.952Z" fill="black"/>
<path d="M308.392 125.617H282.334C282.856 122.125 285.855 119.54 289.386 119.54H294.648C295.764 119.54 296.864 119.802 297.86 120.304L308.392 125.617Z" fill="white"/>
<path d="M308.392 124.943H282.334L282.985 125.796C283.426 122.77 285.91 120.455 288.96 120.227C290.67 120.124 292.407 120.214 294.12 120.214C295.291 120.169 296.456 120.399 297.521 120.887C297.865 121.056 298.205 121.232 298.547 121.405L303.944 124.127L308.052 126.199C308.825 126.589 309.509 125.426 308.733 125.035L299.401 120.327C299.002 120.126 298.605 119.921 298.205 119.724C297.003 119.14 295.682 118.847 294.346 118.866C292.601 118.866 290.845 118.804 289.101 118.871C285.388 119.032 282.294 121.771 281.684 125.438C281.633 125.64 281.677 125.855 281.803 126.021C281.93 126.187 282.125 126.287 282.334 126.291H308.392C308.755 126.278 309.043 125.98 309.043 125.617C309.043 125.254 308.756 124.955 308.392 124.943Z" fill="black"/>
<path d="M310.061 105.947C310.589 106.826 311.431 107.47 312.418 107.749C312.912 107.867 313.425 107.876 313.923 107.773C314.281 107.672 314.491 107.302 314.394 106.943C314.287 106.59 313.922 106.383 313.564 106.472C313.535 106.478 313.506 106.483 313.476 106.488C313.402 106.5 313.418 106.498 313.525 106.483C313.468 106.48 313.411 106.485 313.356 106.497C313.248 106.503 313.139 106.502 313.031 106.494C312.965 106.489 312.818 106.44 313.017 106.497C312.969 106.483 312.916 106.48 312.867 106.469C312.771 106.449 312.676 106.423 312.583 106.392C312.538 106.377 312.493 106.359 312.448 106.343C312.337 106.302 312.61 106.417 312.448 106.341C312.365 106.302 312.285 106.26 312.206 106.214C312.13 106.169 312.056 106.122 311.985 106.071C311.95 106.047 311.917 106.02 311.882 105.996C312.068 106.126 311.939 106.04 311.897 106.006C311.689 105.828 311.497 105.631 311.325 105.418C311.261 105.342 311.448 105.583 311.373 105.481C311.36 105.463 311.347 105.446 311.334 105.428C311.314 105.4 311.294 105.371 311.274 105.342C311.257 105.317 311.241 105.292 311.225 105.267C311.104 105.058 310.881 104.93 310.639 104.931C310.398 104.932 310.175 105.062 310.056 105.272C309.937 105.482 309.938 105.739 310.061 105.947L310.061 105.947Z" fill="black"/>
<path d="M351.408 142.358L356.797 145.423L365.445 150.342L367.43 151.471C368.186 151.901 368.866 150.736 368.111 150.306L362.722 147.241L354.074 142.322L352.089 141.193C351.333 140.763 350.653 141.928 351.408 142.358Z" fill="black"/>
<path d="M268.441 193.126L269.373 190.929C270.737 187.713 270.915 184.117 269.876 180.781L269.183 178.558H320.436L319.378 181.625C318.204 185.025 318.314 188.737 319.687 192.063L322.256 198.287" fill="#FFC41F"/>
<path d="M269.023 193.466C269.694 191.884 270.438 190.317 270.823 188.635C271.432 185.925 271.313 183.102 270.479 180.454C270.264 179.762 270.048 179.07 269.832 178.378L269.181 179.232H318.336C319.007 179.271 319.68 179.271 320.351 179.232C320.379 179.23 320.407 179.23 320.435 179.232L319.785 178.378L318.802 181.227C318.101 183.209 317.804 185.312 317.929 187.411C318.126 190.391 319.353 193.011 320.473 195.723L321.605 198.466C321.714 198.817 322.077 199.023 322.435 198.937C322.792 198.836 323.002 198.466 322.906 198.107L320.599 192.519C320.02 191.201 319.61 189.816 319.377 188.396C319.072 186.166 319.299 183.896 320.039 181.771C320.385 180.759 320.737 179.748 321.085 178.737C321.139 178.534 321.096 178.318 320.969 178.151C320.842 177.984 320.645 177.886 320.435 177.883H275.473C273.41 177.883 271.328 177.803 269.266 177.883C269.238 177.885 269.21 177.883 269.182 177.883C268.972 177.886 268.775 177.985 268.648 178.152C268.521 178.318 268.478 178.534 268.531 178.737C268.758 179.463 268.986 180.188 269.21 180.915C269.714 182.526 269.931 184.213 269.851 185.9C269.728 188.375 268.808 190.546 267.858 192.786C267.684 193.109 267.79 193.512 268.1 193.708C268.422 193.894 268.834 193.786 269.023 193.466H269.023Z" fill="black"/>
<path d="M320.48 213.389C320.423 209.651 321.785 206.031 324.29 203.258L318.818 189.884C316.483 195.209 311.253 198.68 305.438 198.761C309.373 198.706 313.168 200.216 315.989 202.96C318.81 205.703 320.425 209.454 320.48 213.389Z" fill="white"/>
<path d="M269.023 193.466C269.694 191.884 270.438 190.317 270.823 188.635C271.432 185.925 271.313 183.102 270.479 180.454C270.264 179.762 270.048 179.07 269.832 178.378L269.181 179.232H318.336C319.007 179.271 319.68 179.271 320.351 179.232C320.379 179.23 320.407 179.23 320.435 179.232L319.785 178.378C319.211 179.869 318.715 181.39 318.3 182.932C317.584 186.045 317.844 189.303 319.044 192.262C320.15 194.991 321.255 197.719 322.36 200.448L323.668 203.679C323.777 204.03 324.14 204.236 324.498 204.15C324.856 204.049 325.066 203.679 324.969 203.32L321.873 195.678L320.418 192.085C319.397 189.677 319.038 187.04 319.381 184.447C319.666 182.483 320.441 180.604 321.085 178.737C321.139 178.534 321.096 178.318 320.969 178.151C320.842 177.984 320.645 177.885 320.435 177.883H275.473C273.41 177.883 271.328 177.803 269.266 177.883C269.238 177.884 269.21 177.883 269.182 177.883C268.972 177.886 268.775 177.985 268.648 178.151C268.521 178.318 268.478 178.534 268.531 178.737C268.758 179.463 268.986 180.188 269.21 180.914C269.714 182.526 269.931 184.213 269.851 185.9C269.728 188.375 268.808 190.546 267.858 192.786C267.684 193.109 267.79 193.512 268.1 193.708C268.422 193.894 268.834 193.786 269.023 193.466H269.023Z" fill="black"/>
<path d="M263.988 125.679L281.408 129.424C284.799 130.159 288.342 129.497 291.239 127.587C294.135 125.678 296.14 122.682 296.801 119.276C297.79 114.009 297.857 108.611 296.998 103.322C295.562 102.266 293.422 98.1328 293.351 95.7276C293.244 92.0938 295.17 91.1813 297.708 91.1065C300.246 91.0317 303.193 95.7437 303.298 99.2853L303.48 91.6059C303.507 90.4728 304.011 89.4037 304.867 88.6616C305.724 87.9196 306.854 87.5737 307.979 87.7091L313.486 87.8038C314.581 87.8226 315.607 87.2686 316.192 86.3424C316.777 85.4162 316.836 84.252 316.349 83.2711L315.895 82.3587C314.152 78.8544 310.631 74.7068 306.72 74.5687L291.863 74.0443C287.553 73.8921 279.511 79.0843 277.757 86.5384C275.561 95.8747 272.756 103.188 269.948 108.825L266.373 108.59C262.708 108.35 259.29 110.45 257.85 113.829C256.837 116.204 256.938 118.908 258.126 121.201C259.313 123.494 261.463 125.136 263.988 125.679Z" fill="#A8542A"/>
<path d="M263.808 126.329L274.082 128.538L280.009 129.812C281.88 130.214 283.733 130.529 285.66 130.3C290.866 129.723 295.273 126.196 296.976 121.242C297.669 119.226 297.892 117.014 298.078 114.902C298.386 111.495 298.321 108.064 297.883 104.671C297.815 104.154 297.846 103.271 297.474 102.845C297.318 102.666 297.077 102.503 296.891 102.295C296.668 102.04 296.462 101.77 296.276 101.486C295.815 100.794 295.409 100.066 295.062 99.3101C294.07 97.1721 292.934 92.9476 296.071 92.0134C296.687 91.8102 297.338 91.7346 297.984 91.7912C298.558 91.9155 299.084 92.2015 299.501 92.6154C300.746 93.7964 301.664 95.2792 302.167 96.9198C302.428 97.6833 302.581 98.4794 302.623 99.2853C302.635 99.6484 302.934 99.9362 303.297 99.9362C303.66 99.9362 303.958 99.6484 303.971 99.2853L304.135 92.4045C304.141 92.1383 304.144 91.8718 304.154 91.6058C304.187 90.6068 304.659 89.6731 305.444 89.0543C306.553 88.1932 307.895 88.382 309.202 88.4045L313.214 88.4734C314.919 88.5027 316.448 87.6685 317.093 86.0353C317.768 84.3254 316.901 82.7416 316.082 81.2683C314.965 79.1941 313.446 77.3636 311.613 75.8843C310.212 74.7145 308.476 74.0172 306.655 73.8921C305.94 73.8638 305.224 73.8415 304.509 73.8163L295.893 73.5122L292.602 73.396C291.872 73.352 291.139 73.3815 290.414 73.4839C286.868 74.0643 283.527 76.4452 281.147 79.0382C279.698 80.5964 278.543 82.4036 277.737 84.3728C277.324 85.5157 276.99 86.6862 276.74 87.8756C276.394 89.2687 276.024 90.6554 275.63 92.0359C274.312 96.7254 272.651 101.312 270.66 105.758C270.245 106.674 269.813 107.583 269.364 108.484L269.947 108.15C268.77 108.073 267.593 107.99 266.415 107.919C261.548 107.599 257.258 111.085 256.574 115.914C255.89 120.744 259.044 125.284 263.808 126.329C264.653 126.518 265.015 125.218 264.166 125.028C260.202 124.153 257.504 120.472 257.862 116.429C258.254 112.208 262.101 109.014 266.386 109.265C267.573 109.335 268.76 109.421 269.947 109.499C270.187 109.502 270.41 109.374 270.529 109.165C272.509 105.151 274.201 101.002 275.592 96.7482C276.438 94.1865 277.192 91.5967 277.853 88.9788C278.17 87.7345 278.408 86.46 278.841 85.2492C279.183 84.3103 279.622 83.4096 280.151 82.5617C282.15 79.3174 285.135 76.798 288.669 75.3722C289.703 74.9401 290.813 74.7187 291.933 74.7212C292.646 74.7428 293.358 74.7715 294.071 74.7966L302.505 75.0944L305.831 75.2118C306.644 75.2017 307.453 75.3073 308.235 75.5256C310.326 76.2006 312.043 77.8705 313.358 79.5725C314.053 80.475 314.664 81.4383 315.186 82.4508C315.493 82.964 315.743 83.5096 315.932 84.0775C316.107 84.8351 315.918 85.631 315.421 86.2294C314.925 86.8277 314.178 87.1601 313.401 87.128C312.182 87.1152 310.963 87.0861 309.744 87.0651C308.553 87.0447 307.185 86.8548 306.047 87.235C304.155 87.8742 302.861 89.6246 302.805 91.6213C302.718 93.9291 302.695 96.241 302.64 98.5498L302.622 99.2853H303.971C303.84 97.0961 303.087 94.9897 301.801 93.2132C300.754 91.7374 299.298 90.3262 297.365 90.4476C295.718 90.5512 294.023 91.1097 293.238 92.6844C292.349 94.4646 292.609 96.5966 293.248 98.4083C293.649 99.5519 294.17 100.65 294.801 101.685C295.277 102.533 295.907 103.285 296.657 103.904L296.347 103.501C296.534 104.499 296.664 105.507 296.735 106.519C296.964 109.157 296.974 111.81 296.767 114.449C296.546 117.263 296.234 120.235 294.843 122.743C292.485 126.978 287.855 129.427 283.028 128.993C282.15 128.891 281.279 128.734 280.421 128.523L271.458 126.596C269.069 126.082 266.684 125.528 264.287 125.054C264.247 125.046 264.207 125.037 264.166 125.028C263.32 124.846 262.959 126.146 263.808 126.329Z" fill="black"/>
<path d="M291.912 74.021L316.854 74.4019C320.95 74.4725 323.785 80.5225 322.228 84.3124C322.228 84.3124 321.606 87.6347 317.44 90.2655C317.659 90.4847 318.975 86.9768 318.536 85.4421C316.65 87.6338 314.117 89.1693 311.301 89.827C311.301 89.827 312.348 88.0029 312.373 86.3936" fill="#A8542A"/>
<path d="M291.912 74.6955L296.957 74.7725L307.276 74.9301L315.646 75.0579C316.193 75.0395 316.74 75.0562 317.284 75.1079C319.304 75.4043 320.762 77.3091 321.438 79.1052C321.832 80.1182 322.017 81.2007 321.98 82.287C321.914 82.9667 321.768 83.6361 321.543 84.2811C321.04 85.8392 320.125 87.2326 318.896 88.3139C318.339 88.8224 317.738 89.2806 317.1 89.6833C316.897 89.8074 316.773 90.0279 316.773 90.2656C316.773 90.5032 316.897 90.7237 317.1 90.8479C318.09 91.4849 318.621 89.5401 318.802 88.9638C319.163 87.8173 319.496 86.4568 319.186 85.2629C319.12 85.0335 318.938 84.8558 318.707 84.7948C318.476 84.7339 318.23 84.7986 318.059 84.9653C316.296 86.9388 313.795 88.7223 311.122 89.1768L311.883 90.1674C312.565 89.0196 312.964 87.7261 313.047 86.3937C313.077 85.5256 311.728 85.5268 311.698 86.3937C311.62 87.4875 311.284 88.5473 310.719 89.4867C310.589 89.7242 310.612 90.0156 310.777 90.23C310.942 90.4444 311.217 90.5414 311.48 90.4774C312.362 90.2978 313.217 90.0079 314.026 89.6145C315.927 88.7437 317.626 87.485 319.013 85.9191L317.886 85.6216C318.091 86.4142 317.855 87.3366 317.648 88.1062C317.539 88.5227 317.405 88.932 317.246 89.3319C317.205 89.4362 317.159 89.5382 317.107 89.6376C317.076 89.6856 317.048 89.7355 317.023 89.7868C317.012 89.8064 316.999 89.8254 316.986 89.844C317.139 89.5954 317.404 89.5419 317.78 89.6834V90.848C319.828 89.5362 321.612 87.745 322.554 85.4728C323.155 84.1138 323.409 82.6264 323.292 81.1448C322.917 77.5619 320.466 73.7829 316.555 73.7232L309.337 73.613L298.513 73.4477C296.352 73.4147 294.176 73.3014 292.015 73.3484C291.981 73.3492 291.946 73.3474 291.912 73.3469C291.044 73.3336 291.044 74.6823 291.912 74.6956V74.6955Z" fill="black"/>
<path d="M274.416 189.113H309.305C310.909 189.113 312.53 189.181 314.133 189.113C314.156 189.112 314.18 189.113 314.203 189.113C314.566 189.1 314.854 188.802 314.854 188.439C314.854 188.075 314.566 187.777 314.203 187.764H279.314C277.71 187.764 276.089 187.696 274.486 187.764C274.463 187.765 274.439 187.764 274.416 187.764C274.052 187.777 273.765 188.075 273.765 188.439C273.765 188.802 274.052 189.1 274.416 189.113Z" fill="black"/>
<path d="M400.297 313.573H526.892C528.602 313.573 530.315 313.605 532.024 313.573C532.099 313.571 532.174 313.573 532.248 313.573C532.612 313.56 532.899 313.262 532.899 312.898C532.899 312.535 532.612 312.237 532.248 312.224H405.654C403.944 312.224 402.231 312.191 400.522 312.224C400.447 312.225 400.372 312.224 400.297 312.224C399.934 312.237 399.646 312.535 399.646 312.898C399.646 313.262 399.934 313.56 400.297 313.573Z" fill="black"/>
<ellipse cx="187.985" cy="117.293" rx="34.5051" ry="12.4758" fill="white"/>
<path d="M221.815 117.293C221.807 117.891 221.676 118.482 221.432 119.028C221.125 119.679 220.716 120.276 220.22 120.796C218.892 122.133 217.337 123.222 215.626 124.012C210.703 126.475 205.093 127.654 199.67 128.361C192.712 129.255 185.675 129.348 178.696 128.637C172.995 128.062 167.142 126.996 161.854 124.713C159.969 123.958 158.209 122.923 156.633 121.642C155.513 120.677 154.554 119.526 154.243 118.13C154.014 116.896 154.316 115.623 155.073 114.622C156.015 113.248 157.512 112.166 158.971 111.314C163.508 108.666 168.862 107.401 173.999 106.564C180.849 105.483 187.801 105.203 194.715 105.729C200.713 106.158 206.79 107.123 212.451 109.212C214.536 109.941 216.517 110.938 218.347 112.176C219.629 113.078 220.827 114.188 221.462 115.623C221.687 116.151 221.807 116.718 221.815 117.293C221.828 117.656 222.126 117.944 222.49 117.944C222.853 117.944 223.151 117.656 223.164 117.293C223.137 113.598 219.555 111.085 216.613 109.565C211.524 106.935 205.731 105.69 200.095 104.933C192.884 103.972 185.584 103.873 178.349 104.636C172.411 105.259 166.379 106.399 160.893 108.83C158.924 109.652 157.096 110.778 155.477 112.169C154.294 113.234 153.24 114.606 152.921 116.198C152.205 119.769 155.161 122.529 157.925 124.218C162.576 127.06 168.157 128.417 173.479 129.296C180.586 130.444 187.805 130.743 194.983 130.187C201.194 129.724 207.521 128.721 213.356 126.469C215.498 125.695 217.526 124.635 219.384 123.317C220.762 122.29 222.042 121.041 222.717 119.432C223.005 118.755 223.157 118.029 223.164 117.293C223.152 116.93 222.854 116.641 222.49 116.641C222.126 116.641 221.828 116.929 221.815 117.293Z" fill="black"/>
<path d="M200.123 120.103C203.476 120.103 206.399 120.765 207.952 121.747C208.259 121.468 208.443 121.079 208.463 120.664C208.463 118.864 204.427 117.405 199.448 117.405C194.47 117.405 190.434 118.864 190.434 120.664C190.434 121.252 190.866 121.803 191.619 122.279C192.854 121.012 196.194 120.103 200.123 120.103Z" fill="black"/>
<path d="M200.123 120.777C202.59 120.787 205.456 120.997 207.612 122.33C207.877 122.482 208.211 122.438 208.429 122.224C209.037 121.557 209.337 120.71 208.953 119.855C208.685 119.326 208.277 118.88 207.773 118.568C206.307 117.56 204.398 117.177 202.669 116.945C200.361 116.636 198.021 116.661 195.72 117.018C194.044 117.278 192.189 117.714 190.829 118.788C190.301 119.161 189.931 119.718 189.792 120.35C189.609 121.463 190.42 122.297 191.279 122.862C191.545 123.014 191.879 122.971 192.097 122.757C192.883 121.974 194.067 121.615 195.112 121.348C196.753 120.953 198.436 120.761 200.123 120.777C200.486 120.764 200.774 120.466 200.774 120.103C200.774 119.74 200.486 119.441 200.123 119.429C198.265 119.412 196.413 119.632 194.611 120.085C193.382 120.412 192.063 120.888 191.143 121.803L191.96 121.698C191.619 121.517 191.339 121.239 191.156 120.899C191.079 120.756 191.077 120.584 191.153 120.44C191.319 120.141 191.558 119.888 191.847 119.704C192.986 118.934 194.419 118.601 195.755 118.371C197.613 118.067 199.501 117.994 201.377 118.155C202.966 118.242 204.531 118.579 206.016 119.153C206.577 119.358 207.089 119.681 207.516 120.099C207.613 120.212 207.693 120.338 207.755 120.474C207.772 120.516 207.784 120.561 207.789 120.607C207.796 120.676 207.798 120.546 207.789 120.665C207.76 120.898 207.649 121.112 207.476 121.271L208.293 121.165C205.937 119.709 202.823 119.439 200.123 119.429C199.761 119.443 199.475 119.74 199.475 120.103C199.474 120.465 199.761 120.763 200.123 120.777Z" fill="black"/>
<path d="M207.953 121.747C206.4 120.765 203.477 120.103 200.124 120.103C196.195 120.103 192.855 121.012 191.62 122.279C193.173 123.262 196.096 123.924 199.449 123.924C203.378 123.924 206.718 123.015 207.953 121.747Z" fill="#FBDFAE"/>
<path d="M208.293 121.165C207.095 120.481 205.782 120.022 204.418 119.812C202.662 119.492 200.876 119.37 199.093 119.45C197.459 119.496 195.836 119.742 194.262 120.182C193.105 120.459 192.034 121.015 191.143 121.803C190.998 121.952 190.929 122.159 190.956 122.365C190.982 122.571 191.102 122.754 191.279 122.862C192.477 123.546 193.791 124.005 195.154 124.215C196.91 124.535 198.696 124.657 200.479 124.577C202.114 124.531 203.736 124.285 205.311 123.845C206.467 123.568 207.538 123.012 208.429 122.224C208.678 121.958 208.671 121.543 208.414 121.286C208.156 121.029 207.741 121.022 207.476 121.27C206.772 121.97 205.748 122.32 204.814 122.584C203.339 122.983 201.822 123.201 200.294 123.235C198.666 123.304 197.036 123.191 195.433 122.899C194.212 122.713 193.035 122.305 191.96 121.697L192.097 122.757C192.8 122.057 193.825 121.707 194.758 121.443C196.233 121.044 197.751 120.825 199.278 120.791C200.906 120.723 202.537 120.836 204.14 121.127C205.361 121.314 206.537 121.722 207.612 122.329C208.353 122.787 209.031 121.621 208.293 121.165Z" fill="black"/>
<ellipse cx="165.438" cy="117.642" rx="6.24952" ry="2.25962" fill="#389B48"/>
<ellipse cx="180.274" cy="122.587" rx="6.24952" ry="2.25961" fill="#FC7272"/>
<ellipse cx="178.026" cy="111.797" rx="6.24952" ry="2.25961" fill="#458DC9"/>
<ellipse cx="195.785" cy="110.898" rx="6.24952" ry="2.25961" fill="#FFC41F"/>
</svg>
